<mxfile host="app.diagrams.net" agent="Mozilla/5.0 (Macintosh; Intel Mac OS X 10_15_7) AppleWebKit/537.36 (KHTML, like Gecko) Chrome/135.0.0.0 Safari/537.36" version="26.2.14" pages="8">
  <diagram name="income_A0" id="jbs1th7ArFJK0TWwUUg_">
    <mxGraphModel dx="2066" dy="2250" grid="1" gridSize="10" guides="1" tooltips="1" connect="1" arrows="1" fold="1" page="1" pageScale="1" pageWidth="827" pageHeight="1169" math="0" shadow="0">
      <root>
        <mxCell id="0" />
        <mxCell id="1" parent="0" />
        <mxCell id="_Q7LdMOGpYauuXLg1SDU-1" value="записать&amp;nbsp; данные" style="html=1;whiteSpace=wrap;" parent="1" vertex="1">
          <mxGeometry x="180" y="80" width="180" height="170" as="geometry" />
        </mxCell>
        <mxCell id="_Q7LdMOGpYauuXLg1SDU-3" value="" style="endArrow=classic;html=1;rounded=0;" parent="1" edge="1">
          <mxGeometry width="50" height="50" relative="1" as="geometry">
            <mxPoint x="30" y="210" as="sourcePoint" />
            <mxPoint x="180" y="210" as="targetPoint" />
          </mxGeometry>
        </mxCell>
        <mxCell id="_Q7LdMOGpYauuXLg1SDU-4" value="" style="endArrow=classic;html=1;rounded=0;" parent="1" edge="1">
          <mxGeometry width="50" height="50" relative="1" as="geometry">
            <mxPoint x="209.17" y="380" as="sourcePoint" />
            <mxPoint x="209.17" y="250" as="targetPoint" />
          </mxGeometry>
        </mxCell>
        <mxCell id="_Q7LdMOGpYauuXLg1SDU-5" value="" style="endArrow=classic;html=1;rounded=0;" parent="1" edge="1">
          <mxGeometry width="50" height="50" relative="1" as="geometry">
            <mxPoint x="269.23" y="-100" as="sourcePoint" />
            <mxPoint x="269.23" y="80" as="targetPoint" />
          </mxGeometry>
        </mxCell>
        <mxCell id="_Q7LdMOGpYauuXLg1SDU-6" value="messages" style="text;html=1;align=center;verticalAlign=middle;resizable=0;points=[];autosize=1;strokeColor=none;fillColor=none;" parent="1" vertex="1">
          <mxGeometry x="65" y="190" width="80" height="30" as="geometry" />
        </mxCell>
        <mxCell id="_Q7LdMOGpYauuXLg1SDU-8" value="" style="endArrow=classic;html=1;rounded=0;" parent="1" edge="1">
          <mxGeometry width="50" height="50" relative="1" as="geometry">
            <mxPoint x="30" y="150" as="sourcePoint" />
            <mxPoint x="180" y="150" as="targetPoint" />
          </mxGeometry>
        </mxCell>
        <mxCell id="_Q7LdMOGpYauuXLg1SDU-9" value="channal_name" style="text;html=1;align=center;verticalAlign=middle;resizable=0;points=[];autosize=1;strokeColor=none;fillColor=none;" parent="1" vertex="1">
          <mxGeometry x="60" y="129.99999999999997" width="100" height="30" as="geometry" />
        </mxCell>
        <mxCell id="_Q7LdMOGpYauuXLg1SDU-10" value="" style="endArrow=classic;html=1;rounded=0;" parent="1" edge="1">
          <mxGeometry width="50" height="50" relative="1" as="geometry">
            <mxPoint x="360" y="179.71" as="sourcePoint" />
            <mxPoint x="940" y="179.71" as="targetPoint" />
          </mxGeometry>
        </mxCell>
        <mxCell id="_Q7LdMOGpYauuXLg1SDU-12" value="rest client" style="text;html=1;align=center;verticalAlign=middle;resizable=0;points=[];autosize=1;strokeColor=none;fillColor=none;" parent="1" vertex="1">
          <mxGeometry x="139.17" y="300" width="70" height="30" as="geometry" />
        </mxCell>
        <mxCell id="_Q7LdMOGpYauuXLg1SDU-13" value="docker swarm" style="text;html=1;align=center;verticalAlign=middle;resizable=0;points=[];autosize=1;strokeColor=none;fillColor=none;" parent="1" vertex="1">
          <mxGeometry x="170" y="-60" width="100" height="30" as="geometry" />
        </mxCell>
        <mxCell id="_Q7LdMOGpYauuXLg1SDU-14" value="" style="endArrow=classic;html=1;rounded=0;" parent="1" edge="1">
          <mxGeometry width="50" height="50" relative="1" as="geometry">
            <mxPoint x="280" y="380" as="sourcePoint" />
            <mxPoint x="280" y="250" as="targetPoint" />
          </mxGeometry>
        </mxCell>
        <mxCell id="_Q7LdMOGpYauuXLg1SDU-15" value="tarantool" style="text;html=1;align=center;verticalAlign=middle;resizable=0;points=[];autosize=1;strokeColor=none;fillColor=none;" parent="1" vertex="1">
          <mxGeometry x="210" y="300" width="70" height="30" as="geometry" />
        </mxCell>
        <mxCell id="_Q7LdMOGpYauuXLg1SDU-16" value="" style="endArrow=classic;html=1;rounded=0;" parent="1" edge="1">
          <mxGeometry width="50" height="50" relative="1" as="geometry">
            <mxPoint x="350" y="380" as="sourcePoint" />
            <mxPoint x="350" y="250" as="targetPoint" />
          </mxGeometry>
        </mxCell>
        <mxCell id="_Q7LdMOGpYauuXLg1SDU-17" value="minio" style="text;html=1;align=center;verticalAlign=middle;resizable=0;points=[];autosize=1;strokeColor=none;fillColor=none;" parent="1" vertex="1">
          <mxGeometry x="290" y="300" width="50" height="30" as="geometry" />
        </mxCell>
        <mxCell id="_Q7LdMOGpYauuXLg1SDU-19" value="сообщение об успешной операции" style="text;html=1;align=center;verticalAlign=middle;resizable=0;points=[];autosize=1;strokeColor=none;fillColor=none;" parent="1" vertex="1">
          <mxGeometry x="390" y="160" width="220" height="30" as="geometry" />
        </mxCell>
        <mxCell id="xU3e3jN9L2-okjQddFe1-1" value="A0" style="text;html=1;align=center;verticalAlign=middle;resizable=0;points=[];autosize=1;strokeColor=none;fillColor=none;" vertex="1" parent="1">
          <mxGeometry x="315" y="210" width="40" height="30" as="geometry" />
        </mxCell>
      </root>
    </mxGraphModel>
  </diagram>
  <diagram id="ePFIwPPSNxVoDZQeB0pC" name="income_A1">
    <mxGraphModel dx="1653" dy="2034" grid="1" gridSize="10" guides="1" tooltips="1" connect="1" arrows="1" fold="1" page="1" pageScale="1" pageWidth="827" pageHeight="1169" math="0" shadow="0">
      <root>
        <mxCell id="0" />
        <mxCell id="1" parent="0" />
        <mxCell id="gS9QrlG_6zPbiSqrq4Gy-1" value="получить последовательность для контейнера" style="html=1;whiteSpace=wrap;" vertex="1" parent="1">
          <mxGeometry x="180" y="80" width="180" height="170" as="geometry" />
        </mxCell>
        <mxCell id="gS9QrlG_6zPbiSqrq4Gy-3" value="" style="endArrow=classic;html=1;rounded=0;fillColor=#d5e8d4;gradientColor=#97d077;strokeColor=#82b366;" edge="1" parent="1">
          <mxGeometry width="50" height="50" relative="1" as="geometry">
            <mxPoint x="210" y="1520.7142857142858" as="sourcePoint" />
            <mxPoint x="209.17" y="250" as="targetPoint" />
          </mxGeometry>
        </mxCell>
        <mxCell id="gS9QrlG_6zPbiSqrq4Gy-4" value="" style="endArrow=classic;html=1;rounded=0;exitX=0.988;exitY=-0.031;exitDx=0;exitDy=0;exitPerimeter=0;" edge="1" parent="1" source="gS9QrlG_6zPbiSqrq4Gy-10">
          <mxGeometry width="50" height="50" relative="1" as="geometry">
            <mxPoint x="269.23" y="-100" as="sourcePoint" />
            <mxPoint x="269.23" y="80" as="targetPoint" />
          </mxGeometry>
        </mxCell>
        <mxCell id="gS9QrlG_6zPbiSqrq4Gy-6" value="" style="endArrow=classic;html=1;rounded=0;" edge="1" parent="1">
          <mxGeometry width="50" height="50" relative="1" as="geometry">
            <mxPoint x="40" y="150" as="sourcePoint" />
            <mxPoint x="180" y="150" as="targetPoint" />
          </mxGeometry>
        </mxCell>
        <mxCell id="gS9QrlG_6zPbiSqrq4Gy-7" value="имя канала" style="text;html=1;align=center;verticalAlign=middle;resizable=0;points=[];autosize=1;strokeColor=none;fillColor=none;" vertex="1" parent="1">
          <mxGeometry x="65" y="129.99999999999997" width="90" height="30" as="geometry" />
        </mxCell>
        <mxCell id="gS9QrlG_6zPbiSqrq4Gy-9" value="gRPC клиент" style="text;html=1;align=center;verticalAlign=middle;resizable=0;points=[];autosize=1;strokeColor=none;fillColor=none;" vertex="1" parent="1">
          <mxGeometry x="110" y="1490" width="100" height="30" as="geometry" />
        </mxCell>
        <mxCell id="gS9QrlG_6zPbiSqrq4Gy-10" value="docker swarm" style="text;html=1;align=center;verticalAlign=middle;resizable=0;points=[];autosize=1;strokeColor=none;fillColor=none;" vertex="1" parent="1">
          <mxGeometry x="170" width="100" height="30" as="geometry" />
        </mxCell>
        <mxCell id="gS9QrlG_6zPbiSqrq4Gy-11" value="" style="endArrow=classic;html=1;rounded=0;fillColor=#1ba1e2;strokeColor=#006EAF;" edge="1" parent="1">
          <mxGeometry width="50" height="50" relative="1" as="geometry">
            <mxPoint x="280" y="1520.7142857142858" as="sourcePoint" />
            <mxPoint x="280" y="250" as="targetPoint" />
          </mxGeometry>
        </mxCell>
        <mxCell id="gS9QrlG_6zPbiSqrq4Gy-12" value="tarantool" style="text;html=1;align=center;verticalAlign=middle;resizable=0;points=[];autosize=1;strokeColor=none;fillColor=none;" vertex="1" parent="1">
          <mxGeometry x="220" y="1490" width="70" height="30" as="geometry" />
        </mxCell>
        <mxCell id="gS9QrlG_6zPbiSqrq4Gy-13" value="получить минимальный и максимальный сиквенс -&amp;gt;&lt;br&gt;считать имя bucket-ов в tarantool -&amp;gt;&amp;nbsp;&lt;br&gt;сходить в minio и забрать данные -&amp;gt;&lt;br&gt;подтвердить чтение в tarantool" style="text;html=1;align=center;verticalAlign=middle;resizable=0;points=[];autosize=1;strokeColor=none;fillColor=none;" vertex="1" parent="1">
          <mxGeometry x="360" y="-70" width="320" height="70" as="geometry" />
        </mxCell>
        <mxCell id="gS9QrlG_6zPbiSqrq4Gy-17" value="получение имени контейнера" style="html=1;whiteSpace=wrap;" vertex="1" parent="1">
          <mxGeometry x="610" y="240.93" width="180" height="170" as="geometry" />
        </mxCell>
        <mxCell id="gS9QrlG_6zPbiSqrq4Gy-18" value="" style="endArrow=classic;html=1;rounded=0;fillColor=#d5e8d4;gradientColor=#97d077;strokeColor=#82b366;" edge="1" parent="1">
          <mxGeometry width="50" height="50" relative="1" as="geometry">
            <mxPoint x="210" y="1360" as="sourcePoint" />
            <mxPoint x="639.17" y="410.93" as="targetPoint" />
            <Array as="points">
              <mxPoint x="639" y="1360" />
            </Array>
          </mxGeometry>
        </mxCell>
        <mxCell id="gS9QrlG_6zPbiSqrq4Gy-19" value="" style="endArrow=classic;html=1;rounded=0;exitX=1.002;exitY=1.031;exitDx=0;exitDy=0;exitPerimeter=0;" edge="1" parent="1" source="gS9QrlG_6zPbiSqrq4Gy-10">
          <mxGeometry width="50" height="50" relative="1" as="geometry">
            <mxPoint x="699" y="10" as="sourcePoint" />
            <mxPoint x="699.23" y="240.93" as="targetPoint" />
            <Array as="points">
              <mxPoint x="699" y="30" />
            </Array>
          </mxGeometry>
        </mxCell>
        <mxCell id="gS9QrlG_6zPbiSqrq4Gy-22" value="" style="endArrow=classic;html=1;rounded=0;" edge="1" parent="1">
          <mxGeometry width="50" height="50" relative="1" as="geometry">
            <mxPoint x="790" y="330.93" as="sourcePoint" />
            <mxPoint x="1760" y="330" as="targetPoint" />
          </mxGeometry>
        </mxCell>
        <mxCell id="gS9QrlG_6zPbiSqrq4Gy-23" value="имя контейнера" style="text;html=1;align=center;verticalAlign=middle;resizable=0;points=[];autosize=1;strokeColor=none;fillColor=none;" vertex="1" parent="1">
          <mxGeometry x="800" y="310.93" width="110" height="30" as="geometry" />
        </mxCell>
        <mxCell id="gS9QrlG_6zPbiSqrq4Gy-25" value="" style="endArrow=classic;html=1;rounded=0;entryX=0.25;entryY=1;entryDx=0;entryDy=0;fillColor=#d5e8d4;gradientColor=#97d077;strokeColor=#82b366;" edge="1" parent="1" target="gS9QrlG_6zPbiSqrq4Gy-43">
          <mxGeometry width="50" height="50" relative="1" as="geometry">
            <mxPoint x="210" y="1360" as="sourcePoint" />
            <mxPoint x="850" y="750" as="targetPoint" />
            <Array as="points">
              <mxPoint x="883" y="1360" />
            </Array>
          </mxGeometry>
        </mxCell>
        <mxCell id="gS9QrlG_6zPbiSqrq4Gy-26" value="" style="endArrow=classic;html=1;rounded=0;entryX=0.75;entryY=1;entryDx=0;entryDy=0;fillColor=#a20025;strokeColor=#6F0000;" edge="1" parent="1" target="gS9QrlG_6zPbiSqrq4Gy-43">
          <mxGeometry width="50" height="50" relative="1" as="geometry">
            <mxPoint x="988" y="1520" as="sourcePoint" />
            <mxPoint x="1000" y="730" as="targetPoint" />
            <Array as="points">
              <mxPoint x="988" y="1280" />
            </Array>
          </mxGeometry>
        </mxCell>
        <mxCell id="gS9QrlG_6zPbiSqrq4Gy-29" value="" style="endArrow=classic;html=1;rounded=0;entryX=0.5;entryY=0;entryDx=0;entryDy=0;" edge="1" parent="1" target="gS9QrlG_6zPbiSqrq4Gy-43">
          <mxGeometry width="50" height="50" relative="1" as="geometry">
            <mxPoint x="270" y="30" as="sourcePoint" />
            <mxPoint x="930" y="518" as="targetPoint" />
            <Array as="points">
              <mxPoint x="930" y="30" />
            </Array>
          </mxGeometry>
        </mxCell>
        <mxCell id="gS9QrlG_6zPbiSqrq4Gy-36" value="" style="endArrow=classic;html=1;rounded=0;" edge="1" parent="1">
          <mxGeometry width="50" height="50" relative="1" as="geometry">
            <mxPoint x="40" y="370.07" as="sourcePoint" />
            <mxPoint x="610" y="370" as="targetPoint" />
          </mxGeometry>
        </mxCell>
        <mxCell id="gS9QrlG_6zPbiSqrq4Gy-37" value="&lt;span style=&quot;color: rgba(0, 0, 0, 0); font-family: monospace; font-size: 0px; text-align: start;&quot;&gt;%3CmxGraphModel%3E%3Croot%3E%3CmxCell%20id%3D%220%22%2F%3E%3CmxCell%20id%3D%221%22%20parent%3D%220%22%2F%3E%3CmxCell%20id%3D%222%22%20value%3D%22%D0%B8%D0%BC%D1%8F%20%D0%BA%D0%B0%D0%BD%D0%B0%D0%BB%D0%B0%22%20style%3D%22text%3Bhtml%3D1%3Balign%3Dcenter%3BverticalAlign%3Dmiddle%3Bresizable%3D0%3Bpoints%3D%5B%5D%3Bautosize%3D1%3BstrokeColor%3Dnone%3BfillColor%3Dnone%3B%22%20vertex%3D%221%22%20parent%3D%221%22%3E%3CmxGeometry%20x%3D%22390%22%20y%3D%2290%22%20width%3D%2290%22%20height%3D%2230%22%20as%3D%22geometry%22%2F%3E%3C%2FmxCell%3E%3C%2Froot%3E%3C%2FmxGraphModel%3E&lt;/span&gt;" style="text;html=1;align=center;verticalAlign=middle;resizable=0;points=[];autosize=1;strokeColor=none;fillColor=none;" vertex="1" parent="1">
          <mxGeometry x="530" y="349.99999999999994" width="20" height="30" as="geometry" />
        </mxCell>
        <mxCell id="gS9QrlG_6zPbiSqrq4Gy-38" value="" style="endArrow=classic;html=1;rounded=0;" edge="1" parent="1">
          <mxGeometry width="50" height="50" relative="1" as="geometry">
            <mxPoint x="40" y="300.07" as="sourcePoint" />
            <mxPoint x="610" y="300" as="targetPoint" />
          </mxGeometry>
        </mxCell>
        <mxCell id="gS9QrlG_6zPbiSqrq4Gy-39" value="последовательность" style="text;html=1;align=center;verticalAlign=middle;resizable=0;points=[];autosize=1;strokeColor=none;fillColor=none;" vertex="1" parent="1">
          <mxGeometry x="430" y="280.92999999999995" width="140" height="30" as="geometry" />
        </mxCell>
        <mxCell id="gS9QrlG_6zPbiSqrq4Gy-42" value="имя канала" style="text;html=1;align=center;verticalAlign=middle;resizable=0;points=[];autosize=1;strokeColor=none;fillColor=none;" vertex="1" parent="1">
          <mxGeometry x="440" y="350" width="90" height="30" as="geometry" />
        </mxCell>
        <mxCell id="gS9QrlG_6zPbiSqrq4Gy-43" value="запись в s3" style="html=1;whiteSpace=wrap;" vertex="1" parent="1">
          <mxGeometry x="830" y="520" width="210" height="210" as="geometry" />
        </mxCell>
        <mxCell id="gS9QrlG_6zPbiSqrq4Gy-44" value="" style="endArrow=classic;html=1;rounded=0;" edge="1" parent="1">
          <mxGeometry width="50" height="50" relative="1" as="geometry">
            <mxPoint x="1040" y="660.9300000000001" as="sourcePoint" />
            <mxPoint x="1760" y="660" as="targetPoint" />
          </mxGeometry>
        </mxCell>
        <mxCell id="gS9QrlG_6zPbiSqrq4Gy-45" value="" style="endArrow=classic;html=1;rounded=0;" edge="1" parent="1">
          <mxGeometry width="50" height="50" relative="1" as="geometry">
            <mxPoint x="40" y="630" as="sourcePoint" />
            <mxPoint x="827" y="630" as="targetPoint" />
          </mxGeometry>
        </mxCell>
        <mxCell id="gS9QrlG_6zPbiSqrq4Gy-46" value="имя контейнера" style="text;html=1;align=center;verticalAlign=middle;resizable=0;points=[];autosize=1;strokeColor=none;fillColor=none;" vertex="1" parent="1">
          <mxGeometry x="710" y="610" width="110" height="30" as="geometry" />
        </mxCell>
        <mxCell id="gS9QrlG_6zPbiSqrq4Gy-47" value="успешное выполнение операции" style="text;html=1;align=center;verticalAlign=middle;resizable=0;points=[];autosize=1;strokeColor=none;fillColor=none;" vertex="1" parent="1">
          <mxGeometry x="1030" y="640" width="210" height="30" as="geometry" />
        </mxCell>
        <mxCell id="gS9QrlG_6zPbiSqrq4Gy-51" value="1" style="text;html=1;align=center;verticalAlign=middle;resizable=0;points=[];autosize=1;strokeColor=none;fillColor=none;" vertex="1" parent="1">
          <mxGeometry x="330" y="220" width="30" height="30" as="geometry" />
        </mxCell>
        <mxCell id="gS9QrlG_6zPbiSqrq4Gy-52" value="2" style="text;html=1;align=center;verticalAlign=middle;resizable=0;points=[];autosize=1;strokeColor=none;fillColor=none;" vertex="1" parent="1">
          <mxGeometry x="760" y="380.93" width="30" height="30" as="geometry" />
        </mxCell>
        <mxCell id="gS9QrlG_6zPbiSqrq4Gy-53" value="3" style="text;html=1;align=center;verticalAlign=middle;resizable=0;points=[];autosize=1;strokeColor=none;fillColor=none;" vertex="1" parent="1">
          <mxGeometry x="1010" y="700" width="30" height="30" as="geometry" />
        </mxCell>
        <mxCell id="0weGW4GtTOulr0n7Yp-d-1" value="" style="endArrow=classic;html=1;rounded=0;" edge="1" parent="1">
          <mxGeometry width="50" height="50" relative="1" as="geometry">
            <mxPoint x="360" y="159.71" as="sourcePoint" />
            <mxPoint x="1760.4878048780488" y="160" as="targetPoint" />
          </mxGeometry>
        </mxCell>
        <mxCell id="0weGW4GtTOulr0n7Yp-d-2" value="последовательность" style="text;html=1;align=center;verticalAlign=middle;resizable=0;points=[];autosize=1;strokeColor=none;fillColor=none;" vertex="1" parent="1">
          <mxGeometry x="430" y="140" width="140" height="30" as="geometry" />
        </mxCell>
        <mxCell id="0weGW4GtTOulr0n7Yp-d-5" value="" style="endArrow=classic;html=1;rounded=0;" edge="1" parent="1">
          <mxGeometry width="50" height="50" relative="1" as="geometry">
            <mxPoint x="40" y="670" as="sourcePoint" />
            <mxPoint x="827" y="670" as="targetPoint" />
          </mxGeometry>
        </mxCell>
        <mxCell id="0weGW4GtTOulr0n7Yp-d-6" value="сообщение" style="text;html=1;align=center;verticalAlign=middle;resizable=0;points=[];autosize=1;strokeColor=none;fillColor=none;" vertex="1" parent="1">
          <mxGeometry x="720" y="650" width="90" height="30" as="geometry" />
        </mxCell>
        <mxCell id="0weGW4GtTOulr0n7Yp-d-7" value="minio" style="text;html=1;align=center;verticalAlign=middle;resizable=0;points=[];autosize=1;strokeColor=none;fillColor=none;" vertex="1" parent="1">
          <mxGeometry x="930" y="1490" width="50" height="30" as="geometry" />
        </mxCell>
      </root>
    </mxGraphModel>
  </diagram>
  <diagram id="UdVDpUdFP_7uT3h7z-Rw" name="outgoing_A0">
    <mxGraphModel dx="2066" dy="2250" grid="1" gridSize="10" guides="1" tooltips="1" connect="1" arrows="1" fold="1" page="1" pageScale="1" pageWidth="827" pageHeight="1169" math="0" shadow="0">
      <root>
        <mxCell id="0" />
        <mxCell id="1" parent="0" />
        <mxCell id="RZQvU5hWjQzz25mIFYNM-1" value="Считать данные" style="html=1;whiteSpace=wrap;" parent="1" vertex="1">
          <mxGeometry x="180" y="80" width="180" height="170" as="geometry" />
        </mxCell>
        <mxCell id="RZQvU5hWjQzz25mIFYNM-3" value="" style="endArrow=classic;html=1;rounded=0;" parent="1" edge="1">
          <mxGeometry width="50" height="50" relative="1" as="geometry">
            <mxPoint x="30" y="180" as="sourcePoint" />
            <mxPoint x="180" y="180" as="targetPoint" />
          </mxGeometry>
        </mxCell>
        <mxCell id="RZQvU5hWjQzz25mIFYNM-4" value="" style="endArrow=classic;html=1;rounded=0;" parent="1" edge="1">
          <mxGeometry width="50" height="50" relative="1" as="geometry">
            <mxPoint x="30" y="210" as="sourcePoint" />
            <mxPoint x="180" y="210" as="targetPoint" />
          </mxGeometry>
        </mxCell>
        <mxCell id="6ozMfdLPDYQDp9Q2znh8-1" value="" style="endArrow=classic;html=1;rounded=0;" parent="1" edge="1">
          <mxGeometry width="50" height="50" relative="1" as="geometry">
            <mxPoint x="209.17" y="380" as="sourcePoint" />
            <mxPoint x="209.17" y="250" as="targetPoint" />
          </mxGeometry>
        </mxCell>
        <mxCell id="6ozMfdLPDYQDp9Q2znh8-3" value="" style="endArrow=classic;html=1;rounded=0;" parent="1" edge="1">
          <mxGeometry width="50" height="50" relative="1" as="geometry">
            <mxPoint x="269.23" y="-100" as="sourcePoint" />
            <mxPoint x="269.23" y="80" as="targetPoint" />
          </mxGeometry>
        </mxCell>
        <mxCell id="iae34_LOc_xTKIRgxCs6-1" value="ID потребителя" style="text;html=1;align=center;verticalAlign=middle;resizable=0;points=[];autosize=1;strokeColor=none;fillColor=none;" parent="1" vertex="1">
          <mxGeometry x="50" y="190" width="110" height="30" as="geometry" />
        </mxCell>
        <mxCell id="iae34_LOc_xTKIRgxCs6-2" value="текущая последовательность" style="text;html=1;align=center;verticalAlign=middle;resizable=0;points=[];autosize=1;strokeColor=none;fillColor=none;" parent="1" vertex="1">
          <mxGeometry x="10" y="159.99999999999997" width="190" height="30" as="geometry" />
        </mxCell>
        <mxCell id="iae34_LOc_xTKIRgxCs6-6" value="" style="endArrow=classic;html=1;rounded=0;" parent="1" edge="1">
          <mxGeometry width="50" height="50" relative="1" as="geometry">
            <mxPoint x="30" y="150" as="sourcePoint" />
            <mxPoint x="180" y="150" as="targetPoint" />
          </mxGeometry>
        </mxCell>
        <mxCell id="iae34_LOc_xTKIRgxCs6-7" value="имя канала" style="text;html=1;align=center;verticalAlign=middle;resizable=0;points=[];autosize=1;strokeColor=none;fillColor=none;" parent="1" vertex="1">
          <mxGeometry x="65" y="129.99999999999997" width="90" height="30" as="geometry" />
        </mxCell>
        <mxCell id="iae34_LOc_xTKIRgxCs6-8" value="" style="endArrow=classic;html=1;rounded=0;" parent="1" edge="1">
          <mxGeometry width="50" height="50" relative="1" as="geometry">
            <mxPoint x="360" y="170" as="sourcePoint" />
            <mxPoint x="510" y="170" as="targetPoint" />
          </mxGeometry>
        </mxCell>
        <mxCell id="iae34_LOc_xTKIRgxCs6-9" value="сообщение" style="text;html=1;align=center;verticalAlign=middle;resizable=0;points=[];autosize=1;strokeColor=none;fillColor=none;" parent="1" vertex="1">
          <mxGeometry x="390" y="150" width="90" height="30" as="geometry" />
        </mxCell>
        <mxCell id="iae34_LOc_xTKIRgxCs6-12" value="gRPC client" style="text;html=1;align=center;verticalAlign=middle;resizable=0;points=[];autosize=1;strokeColor=none;fillColor=none;" parent="1" vertex="1">
          <mxGeometry x="109.99999999999999" y="340" width="90" height="30" as="geometry" />
        </mxCell>
        <mxCell id="iae34_LOc_xTKIRgxCs6-13" value="docker swarm" style="text;html=1;align=center;verticalAlign=middle;resizable=0;points=[];autosize=1;strokeColor=none;fillColor=none;" parent="1" vertex="1">
          <mxGeometry x="170" y="-60" width="100" height="30" as="geometry" />
        </mxCell>
        <mxCell id="iae34_LOc_xTKIRgxCs6-14" value="" style="endArrow=classic;html=1;rounded=0;" parent="1" edge="1">
          <mxGeometry width="50" height="50" relative="1" as="geometry">
            <mxPoint x="280" y="380" as="sourcePoint" />
            <mxPoint x="280" y="250" as="targetPoint" />
          </mxGeometry>
        </mxCell>
        <mxCell id="iae34_LOc_xTKIRgxCs6-15" value="tarantool" style="text;html=1;align=center;verticalAlign=middle;resizable=0;points=[];autosize=1;strokeColor=none;fillColor=none;" parent="1" vertex="1">
          <mxGeometry x="210" y="340" width="70" height="30" as="geometry" />
        </mxCell>
        <mxCell id="iae34_LOc_xTKIRgxCs6-18" value="" style="endArrow=classic;html=1;rounded=0;" parent="1" edge="1">
          <mxGeometry width="50" height="50" relative="1" as="geometry">
            <mxPoint x="350" y="380" as="sourcePoint" />
            <mxPoint x="350" y="250" as="targetPoint" />
          </mxGeometry>
        </mxCell>
        <mxCell id="iae34_LOc_xTKIRgxCs6-19" value="minio" style="text;html=1;align=center;verticalAlign=middle;resizable=0;points=[];autosize=1;strokeColor=none;fillColor=none;" parent="1" vertex="1">
          <mxGeometry x="300" y="340" width="50" height="30" as="geometry" />
        </mxCell>
      </root>
    </mxGraphModel>
  </diagram>
  <diagram id="Pr0AfFz2UjT563n1Vczw" name="outgoing_A1">
    <mxGraphModel dx="2066" dy="2250" grid="1" gridSize="10" guides="1" tooltips="1" connect="1" arrows="1" fold="1" page="1" pageScale="1" pageWidth="827" pageHeight="1169" math="0" shadow="0">
      <root>
        <mxCell id="0" />
        <mxCell id="1" parent="0" />
        <mxCell id="0ipBV4Bo8RgyibmUua79-1" value="Получить минимальный и&amp;nbsp;&lt;br&gt;максимальный сиквенс" style="html=1;whiteSpace=wrap;" parent="1" vertex="1">
          <mxGeometry x="180" y="80" width="180" height="170" as="geometry" />
        </mxCell>
        <mxCell id="0ipBV4Bo8RgyibmUua79-3" value="" style="endArrow=classic;html=1;rounded=0;" parent="1" edge="1">
          <mxGeometry width="50" height="50" relative="1" as="geometry">
            <mxPoint x="40" y="210" as="sourcePoint" />
            <mxPoint x="180" y="210" as="targetPoint" />
          </mxGeometry>
        </mxCell>
        <mxCell id="0ipBV4Bo8RgyibmUua79-4" value="" style="endArrow=classic;html=1;rounded=0;fillColor=#d5e8d4;gradientColor=#97d077;strokeColor=#82b366;" parent="1" edge="1">
          <mxGeometry width="50" height="50" relative="1" as="geometry">
            <mxPoint x="210" y="1520.7142857142858" as="sourcePoint" />
            <mxPoint x="209.17" y="250" as="targetPoint" />
          </mxGeometry>
        </mxCell>
        <mxCell id="0ipBV4Bo8RgyibmUua79-5" value="" style="endArrow=classic;html=1;rounded=0;exitX=0.988;exitY=-0.031;exitDx=0;exitDy=0;exitPerimeter=0;" parent="1" source="0ipBV4Bo8RgyibmUua79-13" edge="1">
          <mxGeometry width="50" height="50" relative="1" as="geometry">
            <mxPoint x="269.23" y="-100" as="sourcePoint" />
            <mxPoint x="269.23" y="80" as="targetPoint" />
          </mxGeometry>
        </mxCell>
        <mxCell id="0ipBV4Bo8RgyibmUua79-6" value="ID потребителя" style="text;html=1;align=center;verticalAlign=middle;resizable=0;points=[];autosize=1;strokeColor=none;fillColor=none;" parent="1" vertex="1">
          <mxGeometry x="50" y="190" width="110" height="30" as="geometry" />
        </mxCell>
        <mxCell id="0ipBV4Bo8RgyibmUua79-8" value="" style="endArrow=classic;html=1;rounded=0;" parent="1" edge="1">
          <mxGeometry width="50" height="50" relative="1" as="geometry">
            <mxPoint x="40" y="150" as="sourcePoint" />
            <mxPoint x="180" y="150" as="targetPoint" />
          </mxGeometry>
        </mxCell>
        <mxCell id="0ipBV4Bo8RgyibmUua79-9" value="имя канала" style="text;html=1;align=center;verticalAlign=middle;resizable=0;points=[];autosize=1;strokeColor=none;fillColor=none;" parent="1" vertex="1">
          <mxGeometry x="65" y="129.99999999999997" width="90" height="30" as="geometry" />
        </mxCell>
        <mxCell id="0ipBV4Bo8RgyibmUua79-10" value="" style="endArrow=classic;html=1;rounded=0;" parent="1" edge="1">
          <mxGeometry width="50" height="50" relative="1" as="geometry">
            <mxPoint x="360" y="170" as="sourcePoint" />
            <mxPoint x="1760" y="160" as="targetPoint" />
          </mxGeometry>
        </mxCell>
        <mxCell id="0ipBV4Bo8RgyibmUua79-12" value="gRPC клиент" style="text;html=1;align=center;verticalAlign=middle;resizable=0;points=[];autosize=1;strokeColor=none;fillColor=none;" parent="1" vertex="1">
          <mxGeometry x="110" y="1490" width="100" height="30" as="geometry" />
        </mxCell>
        <mxCell id="0ipBV4Bo8RgyibmUua79-13" value="docker swarm" style="text;html=1;align=center;verticalAlign=middle;resizable=0;points=[];autosize=1;strokeColor=none;fillColor=none;" parent="1" vertex="1">
          <mxGeometry x="170" width="100" height="30" as="geometry" />
        </mxCell>
        <mxCell id="0ipBV4Bo8RgyibmUua79-14" value="" style="endArrow=classic;html=1;rounded=0;fillColor=#1ba1e2;strokeColor=#006EAF;" parent="1" edge="1">
          <mxGeometry width="50" height="50" relative="1" as="geometry">
            <mxPoint x="280" y="1520.7142857142858" as="sourcePoint" />
            <mxPoint x="280" y="250" as="targetPoint" />
          </mxGeometry>
        </mxCell>
        <mxCell id="0ipBV4Bo8RgyibmUua79-15" value="tarantool" style="text;html=1;align=center;verticalAlign=middle;resizable=0;points=[];autosize=1;strokeColor=none;fillColor=none;" parent="1" vertex="1">
          <mxGeometry x="220" y="1490" width="70" height="30" as="geometry" />
        </mxCell>
        <mxCell id="0ipBV4Bo8RgyibmUua79-19" value="получить минимальный и максимальный сиквенс -&amp;gt;&lt;br&gt;считать имя bucket-ов в tarantool -&amp;gt;&amp;nbsp;&lt;br&gt;сходить в minio и забрать данные -&amp;gt;&lt;br&gt;подтвердить чтение в tarantool" style="text;html=1;align=center;verticalAlign=middle;resizable=0;points=[];autosize=1;strokeColor=none;fillColor=none;" parent="1" vertex="1">
          <mxGeometry x="430" y="-230" width="320" height="70" as="geometry" />
        </mxCell>
        <mxCell id="tk3pgo8LP9VSdpkNUJvS-5" value="минимальная последовательность" style="text;html=1;align=center;verticalAlign=middle;resizable=0;points=[];autosize=1;strokeColor=none;fillColor=none;" parent="1" vertex="1">
          <mxGeometry x="360" y="150" width="220" height="30" as="geometry" />
        </mxCell>
        <mxCell id="tk3pgo8LP9VSdpkNUJvS-6" value="" style="endArrow=classic;html=1;rounded=0;" parent="1" edge="1">
          <mxGeometry width="50" height="50" relative="1" as="geometry">
            <mxPoint x="360" y="130" as="sourcePoint" />
            <mxPoint x="1760" y="130" as="targetPoint" />
          </mxGeometry>
        </mxCell>
        <mxCell id="tk3pgo8LP9VSdpkNUJvS-7" value="максимальная последовательность" style="text;html=1;align=center;verticalAlign=middle;resizable=0;points=[];autosize=1;strokeColor=none;fillColor=none;" parent="1" vertex="1">
          <mxGeometry x="355" y="110" width="230" height="30" as="geometry" />
        </mxCell>
        <mxCell id="tk3pgo8LP9VSdpkNUJvS-8" value="получить имена контейнеров" style="html=1;whiteSpace=wrap;" parent="1" vertex="1">
          <mxGeometry x="610" y="240.93" width="180" height="170" as="geometry" />
        </mxCell>
        <mxCell id="tk3pgo8LP9VSdpkNUJvS-10" value="" style="endArrow=classic;html=1;rounded=0;fillColor=#d5e8d4;gradientColor=#97d077;strokeColor=#82b366;" parent="1" edge="1">
          <mxGeometry width="50" height="50" relative="1" as="geometry">
            <mxPoint x="210" y="1360" as="sourcePoint" />
            <mxPoint x="639.17" y="410.93" as="targetPoint" />
            <Array as="points">
              <mxPoint x="639" y="1360" />
            </Array>
          </mxGeometry>
        </mxCell>
        <mxCell id="tk3pgo8LP9VSdpkNUJvS-11" value="" style="endArrow=classic;html=1;rounded=0;exitX=1.002;exitY=1.031;exitDx=0;exitDy=0;exitPerimeter=0;" parent="1" source="0ipBV4Bo8RgyibmUua79-13" edge="1">
          <mxGeometry width="50" height="50" relative="1" as="geometry">
            <mxPoint x="699" y="10" as="sourcePoint" />
            <mxPoint x="699.23" y="240.93" as="targetPoint" />
            <Array as="points">
              <mxPoint x="699" y="30" />
            </Array>
          </mxGeometry>
        </mxCell>
        <mxCell id="tk3pgo8LP9VSdpkNUJvS-18" value="" style="endArrow=classic;html=1;rounded=0;exitX=1.03;exitY=0.683;exitDx=0;exitDy=0;exitPerimeter=0;fillColor=#a20025;strokeColor=#6F0000;" parent="1" source="tk3pgo8LP9VSdpkNUJvS-19" edge="1">
          <mxGeometry width="50" height="50" relative="1" as="geometry">
            <mxPoint x="720" y="1532.857142857143" as="sourcePoint" />
            <mxPoint x="710" y="410.93" as="targetPoint" />
          </mxGeometry>
        </mxCell>
        <mxCell id="tk3pgo8LP9VSdpkNUJvS-19" value="minio" style="text;html=1;align=center;verticalAlign=middle;resizable=0;points=[];autosize=1;strokeColor=none;fillColor=none;" parent="1" vertex="1">
          <mxGeometry x="670" y="1500" width="50" height="30" as="geometry" />
        </mxCell>
        <mxCell id="tk3pgo8LP9VSdpkNUJvS-23" value="" style="endArrow=classic;html=1;rounded=0;" parent="1" edge="1">
          <mxGeometry width="50" height="50" relative="1" as="geometry">
            <mxPoint x="790" y="330.93" as="sourcePoint" />
            <mxPoint x="1760" y="330" as="targetPoint" />
          </mxGeometry>
        </mxCell>
        <mxCell id="tk3pgo8LP9VSdpkNUJvS-24" value="имена контейнеров" style="text;html=1;align=center;verticalAlign=middle;resizable=0;points=[];autosize=1;strokeColor=none;fillColor=none;" parent="1" vertex="1">
          <mxGeometry x="790" y="310.93" width="130" height="30" as="geometry" />
        </mxCell>
        <mxCell id="tk3pgo8LP9VSdpkNUJvS-30" value="Подтверждение чтения в tarantool" style="html=1;whiteSpace=wrap;" parent="1" vertex="1">
          <mxGeometry x="1166" y="840" width="210" height="210" as="geometry" />
        </mxCell>
        <mxCell id="tk3pgo8LP9VSdpkNUJvS-31" value="" style="endArrow=classic;html=1;rounded=0;entryX=0.25;entryY=1;entryDx=0;entryDy=0;fillColor=#d5e8d4;gradientColor=#97d077;strokeColor=#82b366;" parent="1" target="tk3pgo8LP9VSdpkNUJvS-66" edge="1">
          <mxGeometry width="50" height="50" relative="1" as="geometry">
            <mxPoint x="210" y="1360" as="sourcePoint" />
            <mxPoint x="850" y="750" as="targetPoint" />
            <Array as="points">
              <mxPoint x="883" y="1360" />
            </Array>
          </mxGeometry>
        </mxCell>
        <mxCell id="tk3pgo8LP9VSdpkNUJvS-34" value="" style="endArrow=classic;html=1;rounded=0;entryX=0.75;entryY=1;entryDx=0;entryDy=0;fillColor=#1ba1e2;strokeColor=#006EAF;" parent="1" target="tk3pgo8LP9VSdpkNUJvS-66" edge="1">
          <mxGeometry width="50" height="50" relative="1" as="geometry">
            <mxPoint x="280" y="1280" as="sourcePoint" />
            <mxPoint x="1000" y="730" as="targetPoint" />
            <Array as="points">
              <mxPoint x="988" y="1280" />
            </Array>
          </mxGeometry>
        </mxCell>
        <mxCell id="tk3pgo8LP9VSdpkNUJvS-39" value="" style="endArrow=classic;html=1;rounded=0;" parent="1" edge="1">
          <mxGeometry width="50" height="50" relative="1" as="geometry">
            <mxPoint x="1376" y="905.4699999999999" as="sourcePoint" />
            <mxPoint x="1760" y="905" as="targetPoint" />
          </mxGeometry>
        </mxCell>
        <mxCell id="tk3pgo8LP9VSdpkNUJvS-40" value="сообщение об успешном подтверждении" style="text;html=1;align=center;verticalAlign=middle;resizable=0;points=[];autosize=1;strokeColor=none;fillColor=none;" parent="1" vertex="1">
          <mxGeometry x="1394" y="870" width="260" height="30" as="geometry" />
        </mxCell>
        <mxCell id="tk3pgo8LP9VSdpkNUJvS-41" value="" style="endArrow=classic;html=1;rounded=0;entryX=0.5;entryY=0;entryDx=0;entryDy=0;" parent="1" target="tk3pgo8LP9VSdpkNUJvS-66" edge="1">
          <mxGeometry width="50" height="50" relative="1" as="geometry">
            <mxPoint x="270" y="30" as="sourcePoint" />
            <mxPoint x="930" y="518" as="targetPoint" />
            <Array as="points">
              <mxPoint x="930" y="30" />
            </Array>
          </mxGeometry>
        </mxCell>
        <mxCell id="tk3pgo8LP9VSdpkNUJvS-48" value="" style="endArrow=classic;html=1;rounded=0;" parent="1" edge="1">
          <mxGeometry width="50" height="50" relative="1" as="geometry">
            <mxPoint x="40" y="950" as="sourcePoint" />
            <mxPoint x="1163" y="950" as="targetPoint" />
          </mxGeometry>
        </mxCell>
        <mxCell id="tk3pgo8LP9VSdpkNUJvS-49" value="ID потребителя" style="text;html=1;align=center;verticalAlign=middle;resizable=0;points=[];autosize=1;strokeColor=none;fillColor=none;" parent="1" vertex="1">
          <mxGeometry x="1046" y="930" width="110" height="30" as="geometry" />
        </mxCell>
        <mxCell id="tk3pgo8LP9VSdpkNUJvS-50" value="" style="endArrow=classic;html=1;rounded=0;" parent="1" edge="1">
          <mxGeometry width="50" height="50" relative="1" as="geometry">
            <mxPoint x="40" y="990" as="sourcePoint" />
            <mxPoint x="1163" y="990" as="targetPoint" />
          </mxGeometry>
        </mxCell>
        <mxCell id="tk3pgo8LP9VSdpkNUJvS-51" value="текущая последовательность клиента" style="text;html=1;align=center;verticalAlign=middle;resizable=0;points=[];autosize=1;strokeColor=none;fillColor=none;" parent="1" vertex="1">
          <mxGeometry x="926" y="970" width="240" height="30" as="geometry" />
        </mxCell>
        <mxCell id="tk3pgo8LP9VSdpkNUJvS-56" value="" style="endArrow=classic;html=1;rounded=0;" parent="1" edge="1">
          <mxGeometry width="50" height="50" relative="1" as="geometry">
            <mxPoint x="40" y="910" as="sourcePoint" />
            <mxPoint x="1163" y="910" as="targetPoint" />
          </mxGeometry>
        </mxCell>
        <mxCell id="tk3pgo8LP9VSdpkNUJvS-57" value="имя канала" style="text;html=1;align=center;verticalAlign=middle;resizable=0;points=[];autosize=1;strokeColor=none;fillColor=none;" parent="1" vertex="1">
          <mxGeometry x="1056" y="890" width="90" height="30" as="geometry" />
        </mxCell>
        <mxCell id="tk3pgo8LP9VSdpkNUJvS-59" value="" style="endArrow=classic;html=1;rounded=0;" parent="1" edge="1">
          <mxGeometry width="50" height="50" relative="1" as="geometry">
            <mxPoint x="40" y="370.07" as="sourcePoint" />
            <mxPoint x="610" y="370" as="targetPoint" />
          </mxGeometry>
        </mxCell>
        <mxCell id="tk3pgo8LP9VSdpkNUJvS-60" value="&lt;span style=&quot;color: rgba(0, 0, 0, 0); font-family: monospace; font-size: 0px; text-align: start;&quot;&gt;%3CmxGraphModel%3E%3Croot%3E%3CmxCell%20id%3D%220%22%2F%3E%3CmxCell%20id%3D%221%22%20parent%3D%220%22%2F%3E%3CmxCell%20id%3D%222%22%20value%3D%22%D0%B8%D0%BC%D1%8F%20%D0%BA%D0%B0%D0%BD%D0%B0%D0%BB%D0%B0%22%20style%3D%22text%3Bhtml%3D1%3Balign%3Dcenter%3BverticalAlign%3Dmiddle%3Bresizable%3D0%3Bpoints%3D%5B%5D%3Bautosize%3D1%3BstrokeColor%3Dnone%3BfillColor%3Dnone%3B%22%20vertex%3D%221%22%20parent%3D%221%22%3E%3CmxGeometry%20x%3D%22390%22%20y%3D%2290%22%20width%3D%2290%22%20height%3D%2230%22%20as%3D%22geometry%22%2F%3E%3C%2FmxCell%3E%3C%2Froot%3E%3C%2FmxGraphModel%3E&lt;/span&gt;" style="text;html=1;align=center;verticalAlign=middle;resizable=0;points=[];autosize=1;strokeColor=none;fillColor=none;" parent="1" vertex="1">
          <mxGeometry x="530" y="349.99999999999994" width="20" height="30" as="geometry" />
        </mxCell>
        <mxCell id="tk3pgo8LP9VSdpkNUJvS-61" value="" style="endArrow=classic;html=1;rounded=0;" parent="1" edge="1">
          <mxGeometry width="50" height="50" relative="1" as="geometry">
            <mxPoint x="40" y="331" as="sourcePoint" />
            <mxPoint x="610" y="330.93" as="targetPoint" />
          </mxGeometry>
        </mxCell>
        <mxCell id="tk3pgo8LP9VSdpkNUJvS-62" value="максимальная последовательность" style="text;html=1;align=center;verticalAlign=middle;resizable=0;points=[];autosize=1;strokeColor=none;fillColor=none;" parent="1" vertex="1">
          <mxGeometry x="380" y="310.92999999999995" width="230" height="30" as="geometry" />
        </mxCell>
        <mxCell id="tk3pgo8LP9VSdpkNUJvS-63" value="" style="endArrow=classic;html=1;rounded=0;" parent="1" edge="1">
          <mxGeometry width="50" height="50" relative="1" as="geometry">
            <mxPoint x="40" y="290.07" as="sourcePoint" />
            <mxPoint x="610" y="290" as="targetPoint" />
          </mxGeometry>
        </mxCell>
        <mxCell id="tk3pgo8LP9VSdpkNUJvS-64" value="минимальная последовательность" style="text;html=1;align=center;verticalAlign=middle;resizable=0;points=[];autosize=1;strokeColor=none;fillColor=none;" parent="1" vertex="1">
          <mxGeometry x="390" y="269.99999999999994" width="220" height="30" as="geometry" />
        </mxCell>
        <mxCell id="tk3pgo8LP9VSdpkNUJvS-65" value="имя канала" style="text;html=1;align=center;verticalAlign=middle;resizable=0;points=[];autosize=1;strokeColor=none;fillColor=none;" parent="1" vertex="1">
          <mxGeometry x="440" y="350" width="90" height="30" as="geometry" />
        </mxCell>
        <mxCell id="tk3pgo8LP9VSdpkNUJvS-66" value="получения данных из s3" style="html=1;whiteSpace=wrap;" parent="1" vertex="1">
          <mxGeometry x="830" y="520" width="210" height="210" as="geometry" />
        </mxCell>
        <mxCell id="tk3pgo8LP9VSdpkNUJvS-71" value="" style="endArrow=classic;html=1;rounded=0;" parent="1" edge="1">
          <mxGeometry width="50" height="50" relative="1" as="geometry">
            <mxPoint x="1040" y="660.9300000000001" as="sourcePoint" />
            <mxPoint x="1760" y="660" as="targetPoint" />
          </mxGeometry>
        </mxCell>
        <mxCell id="tk3pgo8LP9VSdpkNUJvS-77" value="" style="endArrow=classic;html=1;rounded=0;" parent="1" edge="1">
          <mxGeometry width="50" height="50" relative="1" as="geometry">
            <mxPoint x="40" y="630" as="sourcePoint" />
            <mxPoint x="827" y="630" as="targetPoint" />
          </mxGeometry>
        </mxCell>
        <mxCell id="tk3pgo8LP9VSdpkNUJvS-78" value="имена контейнеров" style="text;html=1;align=center;verticalAlign=middle;resizable=0;points=[];autosize=1;strokeColor=none;fillColor=none;" parent="1" vertex="1">
          <mxGeometry x="700" y="610" width="130" height="30" as="geometry" />
        </mxCell>
        <mxCell id="tk3pgo8LP9VSdpkNUJvS-84" value="данные из контейнеров" style="text;html=1;align=center;verticalAlign=middle;resizable=0;points=[];autosize=1;strokeColor=none;fillColor=none;" parent="1" vertex="1">
          <mxGeometry x="1055" y="640" width="160" height="30" as="geometry" />
        </mxCell>
        <mxCell id="tk3pgo8LP9VSdpkNUJvS-85" value="" style="endArrow=classic;html=1;rounded=0;entryX=0.25;entryY=1;entryDx=0;entryDy=0;fillColor=#d5e8d4;gradientColor=#97d077;strokeColor=#82b366;" parent="1" edge="1">
          <mxGeometry width="50" height="50" relative="1" as="geometry">
            <mxPoint x="210" y="1360" as="sourcePoint" />
            <mxPoint x="1214" y="1050" as="targetPoint" />
            <Array as="points">
              <mxPoint x="1214" y="1360" />
            </Array>
          </mxGeometry>
        </mxCell>
        <mxCell id="tk3pgo8LP9VSdpkNUJvS-86" value="" style="endArrow=classic;html=1;rounded=0;entryX=0.75;entryY=1;entryDx=0;entryDy=0;fillColor=#1ba1e2;strokeColor=#006EAF;" parent="1" edge="1">
          <mxGeometry width="50" height="50" relative="1" as="geometry">
            <mxPoint x="280" y="1280" as="sourcePoint" />
            <mxPoint x="1319" y="1050" as="targetPoint" />
            <Array as="points">
              <mxPoint x="1319" y="1280" />
            </Array>
          </mxGeometry>
        </mxCell>
        <mxCell id="tk3pgo8LP9VSdpkNUJvS-88" value="" style="endArrow=classic;html=1;rounded=0;entryX=0.5;entryY=0;entryDx=0;entryDy=0;" parent="1" target="tk3pgo8LP9VSdpkNUJvS-30" edge="1">
          <mxGeometry width="50" height="50" relative="1" as="geometry">
            <mxPoint x="270" y="30" as="sourcePoint" />
            <mxPoint x="935" y="520" as="targetPoint" />
            <Array as="points">
              <mxPoint x="1270" y="30" />
            </Array>
          </mxGeometry>
        </mxCell>
        <mxCell id="tk3pgo8LP9VSdpkNUJvS-89" value="1" style="text;html=1;align=center;verticalAlign=middle;resizable=0;points=[];autosize=1;strokeColor=none;fillColor=none;" parent="1" vertex="1">
          <mxGeometry x="330" y="220" width="30" height="30" as="geometry" />
        </mxCell>
        <mxCell id="tk3pgo8LP9VSdpkNUJvS-90" value="2" style="text;html=1;align=center;verticalAlign=middle;resizable=0;points=[];autosize=1;strokeColor=none;fillColor=none;" parent="1" vertex="1">
          <mxGeometry x="760" y="380.93" width="30" height="30" as="geometry" />
        </mxCell>
        <mxCell id="tk3pgo8LP9VSdpkNUJvS-91" value="3" style="text;html=1;align=center;verticalAlign=middle;resizable=0;points=[];autosize=1;strokeColor=none;fillColor=none;" parent="1" vertex="1">
          <mxGeometry x="1010" y="700" width="30" height="30" as="geometry" />
        </mxCell>
        <mxCell id="tk3pgo8LP9VSdpkNUJvS-92" value="4" style="text;html=1;align=center;verticalAlign=middle;resizable=0;points=[];autosize=1;strokeColor=none;fillColor=none;" parent="1" vertex="1">
          <mxGeometry x="1346" y="1020" width="30" height="30" as="geometry" />
        </mxCell>
      </root>
    </mxGraphModel>
  </diagram>
  <diagram id="pV8M7q_rDo_rycNd7q4l" name="outgoing_A2">
    <mxGraphModel dx="2066" dy="2250" grid="1" gridSize="10" guides="1" tooltips="1" connect="1" arrows="1" fold="1" page="1" pageScale="1" pageWidth="827" pageHeight="1169" math="0" shadow="0">
      <root>
        <mxCell id="0" />
        <mxCell id="1" parent="0" />
        <mxCell id="ZgIMPme7zMvI9szE7LVS-1" value="&lt;span style=&quot;text-wrap-mode: nowrap;&quot;&gt;получение имя файла для чтения&lt;/span&gt;" style="html=1;whiteSpace=wrap;" parent="1" vertex="1">
          <mxGeometry x="180" y="80" width="210" height="190" as="geometry" />
        </mxCell>
        <mxCell id="ZgIMPme7zMvI9szE7LVS-2" value="" style="endArrow=classic;html=1;rounded=0;" parent="1" edge="1">
          <mxGeometry width="50" height="50" relative="1" as="geometry">
            <mxPoint x="40" y="210" as="sourcePoint" />
            <mxPoint x="180" y="210" as="targetPoint" />
          </mxGeometry>
        </mxCell>
        <mxCell id="ZgIMPme7zMvI9szE7LVS-3" value="" style="endArrow=classic;html=1;rounded=0;fillColor=#d5e8d4;gradientColor=#97d077;strokeColor=#82b366;entryX=0.25;entryY=1;entryDx=0;entryDy=0;" parent="1" target="ZgIMPme7zMvI9szE7LVS-1" edge="1">
          <mxGeometry width="50" height="50" relative="1" as="geometry">
            <mxPoint x="230" y="1520" as="sourcePoint" />
            <mxPoint x="209.17" y="250" as="targetPoint" />
          </mxGeometry>
        </mxCell>
        <mxCell id="ZgIMPme7zMvI9szE7LVS-4" value="" style="endArrow=classic;html=1;rounded=0;" parent="1" edge="1">
          <mxGeometry width="50" height="50" relative="1" as="geometry">
            <mxPoint x="270" y="-160" as="sourcePoint" />
            <mxPoint x="269.23" y="80" as="targetPoint" />
          </mxGeometry>
        </mxCell>
        <mxCell id="ZgIMPme7zMvI9szE7LVS-9" value="gRPC клиент" style="text;html=1;align=center;verticalAlign=middle;resizable=0;points=[];autosize=1;strokeColor=none;fillColor=none;" parent="1" vertex="1">
          <mxGeometry x="130" y="1490" width="100" height="30" as="geometry" />
        </mxCell>
        <mxCell id="ZgIMPme7zMvI9szE7LVS-10" value="docker swarm" style="text;html=1;align=center;verticalAlign=middle;resizable=0;points=[];autosize=1;strokeColor=none;fillColor=none;" parent="1" vertex="1">
          <mxGeometry x="170" width="100" height="30" as="geometry" />
        </mxCell>
        <mxCell id="ZgIMPme7zMvI9szE7LVS-15" value="" style="endArrow=classic;html=1;rounded=0;" parent="1" edge="1">
          <mxGeometry width="50" height="50" relative="1" as="geometry">
            <mxPoint x="390" y="130" as="sourcePoint" />
            <mxPoint x="1760" y="130" as="targetPoint" />
          </mxGeometry>
        </mxCell>
        <mxCell id="ZgIMPme7zMvI9szE7LVS-16" value="имя файла" style="text;html=1;align=center;verticalAlign=middle;resizable=0;points=[];autosize=1;strokeColor=none;fillColor=none;" parent="1" vertex="1">
          <mxGeometry x="510" y="110" width="90" height="30" as="geometry" />
        </mxCell>
        <mxCell id="a4VtL7CDj0sjyNeLyq51-4" style="edgeStyle=orthogonalEdgeStyle;rounded=0;orthogonalLoop=1;jettySize=auto;html=1;exitX=1;exitY=0.25;exitDx=0;exitDy=0;entryX=0;entryY=0.25;entryDx=0;entryDy=0;" parent="1" source="ZgIMPme7zMvI9szE7LVS-17" target="ZgIMPme7zMvI9szE7LVS-1" edge="1">
          <mxGeometry relative="1" as="geometry">
            <Array as="points">
              <mxPoint x="1130" y="283" />
              <mxPoint x="1130" y="-50" />
              <mxPoint x="40" y="-50" />
              <mxPoint x="40" y="128" />
            </Array>
          </mxGeometry>
        </mxCell>
        <mxCell id="ZgIMPme7zMvI9szE7LVS-17" value="получения данных из s3" style="html=1;whiteSpace=wrap;" parent="1" vertex="1">
          <mxGeometry x="610" y="240.93" width="180" height="170" as="geometry" />
        </mxCell>
        <mxCell id="ZgIMPme7zMvI9szE7LVS-18" value="" style="endArrow=classic;html=1;rounded=0;fillColor=#d5e8d4;gradientColor=#97d077;strokeColor=#82b366;" parent="1" edge="1">
          <mxGeometry width="50" height="50" relative="1" as="geometry">
            <mxPoint x="230" y="1360" as="sourcePoint" />
            <mxPoint x="639.17" y="410.93" as="targetPoint" />
            <Array as="points">
              <mxPoint x="639" y="1360" />
            </Array>
          </mxGeometry>
        </mxCell>
        <mxCell id="ZgIMPme7zMvI9szE7LVS-19" value="" style="endArrow=classic;html=1;rounded=0;exitX=1.002;exitY=1.031;exitDx=0;exitDy=0;exitPerimeter=0;" parent="1" source="ZgIMPme7zMvI9szE7LVS-10" edge="1">
          <mxGeometry width="50" height="50" relative="1" as="geometry">
            <mxPoint x="699" y="10" as="sourcePoint" />
            <mxPoint x="699.23" y="240.93" as="targetPoint" />
            <Array as="points">
              <mxPoint x="699" y="30" />
            </Array>
          </mxGeometry>
        </mxCell>
        <mxCell id="ZgIMPme7zMvI9szE7LVS-20" value="" style="endArrow=classic;html=1;rounded=0;fillColor=#a20025;strokeColor=#6F0000;entryX=0.75;entryY=1;entryDx=0;entryDy=0;" parent="1" target="ZgIMPme7zMvI9szE7LVS-17" edge="1">
          <mxGeometry width="50" height="50" relative="1" as="geometry">
            <mxPoint x="740" y="1520" as="sourcePoint" />
            <mxPoint x="710" y="410.93" as="targetPoint" />
          </mxGeometry>
        </mxCell>
        <mxCell id="ZgIMPme7zMvI9szE7LVS-21" value="minio" style="text;html=1;align=center;verticalAlign=middle;resizable=0;points=[];autosize=1;strokeColor=none;fillColor=none;" parent="1" vertex="1">
          <mxGeometry x="680" y="1480" width="50" height="30" as="geometry" />
        </mxCell>
        <mxCell id="ZgIMPme7zMvI9szE7LVS-22" value="" style="endArrow=classic;html=1;rounded=0;exitX=1;exitY=0.5;exitDx=0;exitDy=0;" parent="1" source="ZgIMPme7zMvI9szE7LVS-17" edge="1">
          <mxGeometry width="50" height="50" relative="1" as="geometry">
            <mxPoint x="790" y="330.93" as="sourcePoint" />
            <mxPoint x="1760" y="330" as="targetPoint" />
          </mxGeometry>
        </mxCell>
        <mxCell id="ZgIMPme7zMvI9szE7LVS-38" value="" style="endArrow=classic;html=1;rounded=0;" parent="1" edge="1">
          <mxGeometry width="50" height="50" relative="1" as="geometry">
            <mxPoint x="40" y="331" as="sourcePoint" />
            <mxPoint x="610" y="330.93" as="targetPoint" />
          </mxGeometry>
        </mxCell>
        <mxCell id="ZgIMPme7zMvI9szE7LVS-39" value="имя контейнера" style="text;html=1;align=center;verticalAlign=middle;resizable=0;points=[];autosize=1;strokeColor=none;fillColor=none;" parent="1" vertex="1">
          <mxGeometry x="429" y="310.92999999999995" width="110" height="30" as="geometry" />
        </mxCell>
        <mxCell id="ZgIMPme7zMvI9szE7LVS-51" value="1" style="text;html=1;align=center;verticalAlign=middle;resizable=0;points=[];autosize=1;strokeColor=none;fillColor=none;" parent="1" vertex="1">
          <mxGeometry x="330" y="220" width="30" height="30" as="geometry" />
        </mxCell>
        <mxCell id="ZgIMPme7zMvI9szE7LVS-52" value="2" style="text;html=1;align=center;verticalAlign=middle;resizable=0;points=[];autosize=1;strokeColor=none;fillColor=none;" parent="1" vertex="1">
          <mxGeometry x="760" y="380.93" width="30" height="30" as="geometry" />
        </mxCell>
        <mxCell id="a4VtL7CDj0sjyNeLyq51-1" value="список файлов" style="text;html=1;align=center;verticalAlign=middle;resizable=0;points=[];autosize=1;strokeColor=none;fillColor=none;" parent="1" vertex="1">
          <mxGeometry x="55" y="188" width="110" height="30" as="geometry" />
        </mxCell>
        <mxCell id="ZgIMPme7zMvI9szE7LVS-23" value="данные из контейнера" style="text;html=1;align=center;verticalAlign=middle;resizable=0;points=[];autosize=1;strokeColor=none;fillColor=none;" parent="1" vertex="1">
          <mxGeometry x="800" y="300" width="150" height="30" as="geometry" />
        </mxCell>
        <mxCell id="a4VtL7CDj0sjyNeLyq51-6" value="предыдущий файл" style="text;html=1;align=center;verticalAlign=middle;resizable=0;points=[];autosize=1;strokeColor=none;fillColor=none;" parent="1" vertex="1">
          <mxGeometry x="50" y="90" width="130" height="30" as="geometry" />
        </mxCell>
      </root>
    </mxGraphModel>
  </diagram>
  <diagram id="jHpdbJpUPNEIgnUoBQSX" name="finance_A0">
    <mxGraphModel dx="1257" dy="1831" grid="1" gridSize="10" guides="1" tooltips="1" connect="1" arrows="1" fold="1" page="1" pageScale="1" pageWidth="827" pageHeight="1169" math="0" shadow="0">
      <root>
        <mxCell id="0" />
        <mxCell id="1" parent="0" />
        <mxCell id="ifFVxC2hUUspTQ3nQQMN-1" value="Оплата сотруднику за сортировку посылки" style="html=1;whiteSpace=wrap;" parent="1" vertex="1">
          <mxGeometry x="180" y="80" width="180" height="170" as="geometry" />
        </mxCell>
        <mxCell id="ifFVxC2hUUspTQ3nQQMN-4" value="" style="endArrow=classic;html=1;rounded=0;" parent="1" edge="1">
          <mxGeometry width="50" height="50" relative="1" as="geometry">
            <mxPoint x="209.17" y="380" as="sourcePoint" />
            <mxPoint x="209.17" y="250" as="targetPoint" />
          </mxGeometry>
        </mxCell>
        <mxCell id="ifFVxC2hUUspTQ3nQQMN-5" value="" style="endArrow=classic;html=1;rounded=0;" parent="1" edge="1">
          <mxGeometry width="50" height="50" relative="1" as="geometry">
            <mxPoint x="210" y="-320" as="sourcePoint" />
            <mxPoint x="210.00000000000003" y="80" as="targetPoint" />
          </mxGeometry>
        </mxCell>
        <mxCell id="ifFVxC2hUUspTQ3nQQMN-8" value="" style="endArrow=classic;html=1;rounded=0;" parent="1" edge="1">
          <mxGeometry width="50" height="50" relative="1" as="geometry">
            <mxPoint x="30" y="150" as="sourcePoint" />
            <mxPoint x="180" y="150" as="targetPoint" />
          </mxGeometry>
        </mxCell>
        <mxCell id="ifFVxC2hUUspTQ3nQQMN-10" value="" style="endArrow=classic;html=1;rounded=0;" parent="1" edge="1">
          <mxGeometry width="50" height="50" relative="1" as="geometry">
            <mxPoint x="360" y="160" as="sourcePoint" />
            <mxPoint x="600" y="160" as="targetPoint" />
          </mxGeometry>
        </mxCell>
        <mxCell id="ifFVxC2hUUspTQ3nQQMN-12" value="Сотрудник&amp;nbsp;&lt;div&gt;склада&lt;/div&gt;" style="text;html=1;align=center;verticalAlign=middle;resizable=0;points=[];autosize=1;strokeColor=none;fillColor=none;" parent="1" vertex="1">
          <mxGeometry x="109.99999999999999" y="335" width="90" height="40" as="geometry" />
        </mxCell>
        <mxCell id="ifFVxC2hUUspTQ3nQQMN-14" value="" style="endArrow=classic;html=1;rounded=0;" parent="1" edge="1">
          <mxGeometry width="50" height="50" relative="1" as="geometry">
            <mxPoint x="280" y="380" as="sourcePoint" />
            <mxPoint x="280" y="250" as="targetPoint" />
          </mxGeometry>
        </mxCell>
        <mxCell id="ifFVxC2hUUspTQ3nQQMN-15" value="ТСД" style="text;html=1;align=center;verticalAlign=middle;resizable=0;points=[];autosize=1;strokeColor=none;fillColor=none;" parent="1" vertex="1">
          <mxGeometry x="220" y="340" width="50" height="30" as="geometry" />
        </mxCell>
        <mxCell id="ifFVxC2hUUspTQ3nQQMN-16" value="" style="endArrow=classic;html=1;rounded=0;" parent="1" edge="1">
          <mxGeometry width="50" height="50" relative="1" as="geometry">
            <mxPoint x="350" y="380" as="sourcePoint" />
            <mxPoint x="350" y="250" as="targetPoint" />
          </mxGeometry>
        </mxCell>
        <mxCell id="ifFVxC2hUUspTQ3nQQMN-17" value="Система&amp;nbsp;&lt;div&gt;управления&amp;nbsp;&lt;/div&gt;&lt;div&gt;складом&lt;/div&gt;" style="text;html=1;align=center;verticalAlign=middle;resizable=0;points=[];autosize=1;strokeColor=none;fillColor=none;" parent="1" vertex="1">
          <mxGeometry x="270" y="325" width="90" height="60" as="geometry" />
        </mxCell>
        <mxCell id="ifFVxC2hUUspTQ3nQQMN-18" value="Данные пользователя(&lt;div&gt;штрих код товара,&lt;/div&gt;&lt;div&gt;ID сотрудника)&lt;/div&gt;" style="text;html=1;align=center;verticalAlign=middle;resizable=0;points=[];autosize=1;strokeColor=none;fillColor=none;" parent="1" vertex="1">
          <mxGeometry x="30" y="100" width="150" height="60" as="geometry" />
        </mxCell>
        <mxCell id="ifFVxC2hUUspTQ3nQQMN-21" value="" style="endArrow=classic;html=1;rounded=0;exitX=0.161;exitY=-0.031;exitDx=0;exitDy=0;exitPerimeter=0;" parent="1" edge="1">
          <mxGeometry width="50" height="50" relative="1" as="geometry">
            <mxPoint x="342.1999999999998" y="-320.92999999999984" as="sourcePoint" />
            <mxPoint x="345" y="80" as="targetPoint" />
          </mxGeometry>
        </mxCell>
        <mxCell id="ifFVxC2hUUspTQ3nQQMN-23" value="" style="endArrow=classic;html=1;rounded=0;" parent="1" edge="1">
          <mxGeometry width="50" height="50" relative="1" as="geometry">
            <mxPoint x="244.32999999999998" y="-320" as="sourcePoint" />
            <mxPoint x="244.32999999999998" y="80" as="targetPoint" />
          </mxGeometry>
        </mxCell>
        <mxCell id="ifFVxC2hUUspTQ3nQQMN-28" value="деньги на счёте сотрудника" style="text;html=1;align=center;verticalAlign=middle;resizable=0;points=[];autosize=1;strokeColor=none;fillColor=none;" parent="1" vertex="1">
          <mxGeometry x="345" y="140" width="180" height="30" as="geometry" />
        </mxCell>
        <mxCell id="PcxjTE5Pf1eHxe1QJH8g-2" value="Процедуры&amp;nbsp;&lt;div&gt;сортировки&lt;/div&gt;" style="text;html=1;align=center;verticalAlign=middle;resizable=0;points=[];autosize=1;strokeColor=none;fillColor=none;" parent="1" vertex="1">
          <mxGeometry x="115" y="-330" width="90" height="40" as="geometry" />
        </mxCell>
        <mxCell id="PcxjTE5Pf1eHxe1QJH8g-3" value="Политика&amp;nbsp;&lt;div&gt;контура финансов&lt;/div&gt;" style="text;html=1;align=center;verticalAlign=middle;resizable=0;points=[];autosize=1;strokeColor=none;fillColor=none;" parent="1" vertex="1">
          <mxGeometry x="160" y="-380" width="130" height="40" as="geometry" />
        </mxCell>
        <mxCell id="PcxjTE5Pf1eHxe1QJH8g-4" value="требования к&amp;nbsp;&lt;div&gt;отчётам&lt;/div&gt;" style="text;html=1;align=center;verticalAlign=middle;resizable=0;points=[];autosize=1;strokeColor=none;fillColor=none;" parent="1" vertex="1">
          <mxGeometry x="350" y="-340" width="100" height="40" as="geometry" />
        </mxCell>
        <mxCell id="hXp_f_h1LdkJJrVoPDzH-1" value="" style="endArrow=classic;html=1;rounded=0;" parent="1" edge="1">
          <mxGeometry width="50" height="50" relative="1" as="geometry">
            <mxPoint x="314.33" y="-320" as="sourcePoint" />
            <mxPoint x="314.33" y="80" as="targetPoint" />
          </mxGeometry>
        </mxCell>
        <mxCell id="hXp_f_h1LdkJJrVoPDzH-2" value="Доступность&amp;nbsp;&lt;br&gt;системы WMS" style="text;html=1;align=center;verticalAlign=middle;resizable=0;points=[];autosize=1;strokeColor=none;fillColor=none;" parent="1" vertex="1">
          <mxGeometry x="285" y="-380" width="100" height="40" as="geometry" />
        </mxCell>
      </root>
    </mxGraphModel>
  </diagram>
  <diagram id="GMyrEBquf54yIAlDOqaL" name="finance_A1">
    <mxGraphModel dx="2561" dy="2428" grid="1" gridSize="10" guides="1" tooltips="1" connect="1" arrows="1" fold="1" page="1" pageScale="1" pageWidth="827" pageHeight="1169" math="0" shadow="0">
      <root>
        <mxCell id="0" />
        <mxCell id="1" parent="0" />
        <mxCell id="8ec8H4C21xjkeh68leLf-1" value="Сканирование товара" style="html=1;whiteSpace=wrap;" parent="1" vertex="1">
          <mxGeometry x="190" y="90" width="180" height="170" as="geometry" />
        </mxCell>
        <mxCell id="8ec8H4C21xjkeh68leLf-2" value="" style="endArrow=classic;html=1;rounded=0;" parent="1" edge="1">
          <mxGeometry width="50" height="50" relative="1" as="geometry">
            <mxPoint x="230" y="2171.3333333333335" as="sourcePoint" />
            <mxPoint x="219.17" y="260" as="targetPoint" />
          </mxGeometry>
        </mxCell>
        <mxCell id="8ec8H4C21xjkeh68leLf-3" value="" style="endArrow=classic;html=1;rounded=0;" parent="1" edge="1">
          <mxGeometry width="50" height="50" relative="1" as="geometry">
            <mxPoint x="220" y="-310" as="sourcePoint" />
            <mxPoint x="220.00000000000003" y="90" as="targetPoint" />
          </mxGeometry>
        </mxCell>
        <mxCell id="8ec8H4C21xjkeh68leLf-4" value="" style="endArrow=classic;html=1;rounded=0;" parent="1" edge="1">
          <mxGeometry width="50" height="50" relative="1" as="geometry">
            <mxPoint x="40" y="160" as="sourcePoint" />
            <mxPoint x="190" y="160" as="targetPoint" />
          </mxGeometry>
        </mxCell>
        <mxCell id="8ec8H4C21xjkeh68leLf-5" value="" style="endArrow=classic;html=1;rounded=0;" parent="1" edge="1">
          <mxGeometry width="50" height="50" relative="1" as="geometry">
            <mxPoint x="370" y="170" as="sourcePoint" />
            <mxPoint x="2500" y="170" as="targetPoint" />
          </mxGeometry>
        </mxCell>
        <mxCell id="8ec8H4C21xjkeh68leLf-6" value="Сотрудник&amp;nbsp;&lt;div&gt;склада&lt;/div&gt;" style="text;html=1;align=center;verticalAlign=middle;resizable=0;points=[];autosize=1;strokeColor=none;fillColor=none;" parent="1" vertex="1">
          <mxGeometry x="124.99999999999999" y="2170" width="90" height="40" as="geometry" />
        </mxCell>
        <mxCell id="8ec8H4C21xjkeh68leLf-7" value="" style="endArrow=classic;html=1;rounded=0;" parent="1" edge="1">
          <mxGeometry width="50" height="50" relative="1" as="geometry">
            <mxPoint x="290" y="2170.4166666666665" as="sourcePoint" />
            <mxPoint x="290" y="260" as="targetPoint" />
          </mxGeometry>
        </mxCell>
        <mxCell id="8ec8H4C21xjkeh68leLf-8" value="ТСД" style="text;html=1;align=center;verticalAlign=middle;resizable=0;points=[];autosize=1;strokeColor=none;fillColor=none;" parent="1" vertex="1">
          <mxGeometry x="260" y="2170" width="50" height="30" as="geometry" />
        </mxCell>
        <mxCell id="8ec8H4C21xjkeh68leLf-9" value="" style="endArrow=classic;html=1;rounded=0;" parent="1" edge="1">
          <mxGeometry width="50" height="50" relative="1" as="geometry">
            <mxPoint x="360" y="2170.4166666666665" as="sourcePoint" />
            <mxPoint x="360" y="260" as="targetPoint" />
          </mxGeometry>
        </mxCell>
        <mxCell id="8ec8H4C21xjkeh68leLf-10" value="Система&amp;nbsp;&lt;div&gt;управления&amp;nbsp;&lt;/div&gt;&lt;div&gt;складом&lt;/div&gt;" style="text;html=1;align=center;verticalAlign=middle;resizable=0;points=[];autosize=1;strokeColor=none;fillColor=none;" parent="1" vertex="1">
          <mxGeometry x="360" y="2150" width="90" height="60" as="geometry" />
        </mxCell>
        <mxCell id="8ec8H4C21xjkeh68leLf-11" value="Данные пользователя(&lt;div&gt;штрих код товара,&lt;/div&gt;&lt;div&gt;ID сотрудника)&lt;/div&gt;" style="text;html=1;align=center;verticalAlign=middle;resizable=0;points=[];autosize=1;strokeColor=none;fillColor=none;" parent="1" vertex="1">
          <mxGeometry x="40" y="110" width="150" height="60" as="geometry" />
        </mxCell>
        <mxCell id="8ec8H4C21xjkeh68leLf-13" value="" style="endArrow=classic;html=1;rounded=0;" parent="1" edge="1">
          <mxGeometry width="50" height="50" relative="1" as="geometry">
            <mxPoint x="290" y="-310" as="sourcePoint" />
            <mxPoint x="290" y="90" as="targetPoint" />
          </mxGeometry>
        </mxCell>
        <mxCell id="8ec8H4C21xjkeh68leLf-14" value="отсортированная посылка" style="text;html=1;align=center;verticalAlign=middle;resizable=0;points=[];autosize=1;strokeColor=none;fillColor=none;" parent="1" vertex="1">
          <mxGeometry x="370" y="150" width="170" height="30" as="geometry" />
        </mxCell>
        <mxCell id="8ec8H4C21xjkeh68leLf-15" value="Процедуры&amp;nbsp;&lt;div&gt;сортировки&lt;/div&gt;" style="text;html=1;align=center;verticalAlign=middle;resizable=0;points=[];autosize=1;strokeColor=none;fillColor=none;" parent="1" vertex="1">
          <mxGeometry x="125" y="-320" width="90" height="40" as="geometry" />
        </mxCell>
        <mxCell id="8ec8H4C21xjkeh68leLf-16" value="Доступность системы WMS" style="text;html=1;align=center;verticalAlign=middle;resizable=0;points=[];autosize=1;strokeColor=none;fillColor=none;" parent="1" vertex="1">
          <mxGeometry x="300" y="-330" width="180" height="30" as="geometry" />
        </mxCell>
        <mxCell id="vZPJ6vrTCE2Jy5iKyfcB-1" value="Определение базового расчёта&amp;nbsp;" style="html=1;whiteSpace=wrap;" parent="1" vertex="1">
          <mxGeometry x="520" y="720" width="180" height="170" as="geometry" />
        </mxCell>
        <mxCell id="vZPJ6vrTCE2Jy5iKyfcB-2" value="" style="endArrow=classic;html=1;rounded=0;" parent="1" edge="1">
          <mxGeometry width="50" height="50" relative="1" as="geometry">
            <mxPoint x="550" y="2170" as="sourcePoint" />
            <mxPoint x="549.17" y="890" as="targetPoint" />
          </mxGeometry>
        </mxCell>
        <mxCell id="vZPJ6vrTCE2Jy5iKyfcB-3" value="" style="endArrow=classic;html=1;rounded=0;" parent="1" edge="1">
          <mxGeometry width="50" height="50" relative="1" as="geometry">
            <mxPoint x="540" y="-320.8333333333333" as="sourcePoint" />
            <mxPoint x="550" y="720" as="targetPoint" />
          </mxGeometry>
        </mxCell>
        <mxCell id="vZPJ6vrTCE2Jy5iKyfcB-4" value="" style="endArrow=classic;html=1;rounded=0;" parent="1" edge="1">
          <mxGeometry width="50" height="50" relative="1" as="geometry">
            <mxPoint x="40" y="790" as="sourcePoint" />
            <mxPoint x="520" y="790" as="targetPoint" />
          </mxGeometry>
        </mxCell>
        <mxCell id="vZPJ6vrTCE2Jy5iKyfcB-5" value="" style="endArrow=classic;html=1;rounded=0;" parent="1" edge="1">
          <mxGeometry width="50" height="50" relative="1" as="geometry">
            <mxPoint x="700" y="800" as="sourcePoint" />
            <mxPoint x="2480" y="800" as="targetPoint" />
          </mxGeometry>
        </mxCell>
        <mxCell id="vZPJ6vrTCE2Jy5iKyfcB-6" value="Система контура&lt;div&gt;финансов&lt;/div&gt;" style="text;html=1;align=center;verticalAlign=middle;resizable=0;points=[];autosize=1;strokeColor=none;fillColor=none;" parent="1" vertex="1">
          <mxGeometry x="570" y="2160" width="120" height="40" as="geometry" />
        </mxCell>
        <mxCell id="vZPJ6vrTCE2Jy5iKyfcB-11" value="Данные пользователя(&lt;div&gt;штрих код товара,&lt;/div&gt;&lt;div&gt;ID сотрудника&lt;span style=&quot;background-color: transparent; color: light-dark(rgb(0, 0, 0), rgb(255, 255, 255));&quot;&gt;)&lt;/span&gt;&lt;/div&gt;" style="text;html=1;align=center;verticalAlign=middle;resizable=0;points=[];autosize=1;strokeColor=none;fillColor=none;" parent="1" vertex="1">
          <mxGeometry x="370" y="730" width="150" height="60" as="geometry" />
        </mxCell>
        <mxCell id="vZPJ6vrTCE2Jy5iKyfcB-12" value="" style="endArrow=classic;html=1;rounded=0;" parent="1" edge="1">
          <mxGeometry width="50" height="50" relative="1" as="geometry">
            <mxPoint x="610" y="-320" as="sourcePoint" />
            <mxPoint x="620" y="720" as="targetPoint" />
          </mxGeometry>
        </mxCell>
        <mxCell id="vZPJ6vrTCE2Jy5iKyfcB-13" value="расчётные коэффициенты для оплаты" style="text;html=1;align=center;verticalAlign=middle;resizable=0;points=[];autosize=1;strokeColor=none;fillColor=none;" parent="1" vertex="1">
          <mxGeometry x="700" y="770" width="240" height="30" as="geometry" />
        </mxCell>
        <mxCell id="vZPJ6vrTCE2Jy5iKyfcB-14" value="Процедуры&amp;nbsp;&lt;div&gt;сортировки&lt;/div&gt;" style="text;html=1;align=center;verticalAlign=middle;resizable=0;points=[];autosize=1;strokeColor=none;fillColor=none;" parent="1" vertex="1">
          <mxGeometry x="480" y="-365" width="90" height="40" as="geometry" />
        </mxCell>
        <mxCell id="vZPJ6vrTCE2Jy5iKyfcB-15" value="Доступность системы WMS" style="text;html=1;align=center;verticalAlign=middle;resizable=0;points=[];autosize=1;strokeColor=none;fillColor=none;" parent="1" vertex="1">
          <mxGeometry x="620" y="-360" width="180" height="30" as="geometry" />
        </mxCell>
        <mxCell id="TU8794vIS2MuA3qGIEtW-1" value="расчёт финальной оплаты" style="html=1;whiteSpace=wrap;" vertex="1" parent="1">
          <mxGeometry x="1110" y="1190" width="180" height="170" as="geometry" />
        </mxCell>
        <mxCell id="TU8794vIS2MuA3qGIEtW-2" value="" style="endArrow=classic;html=1;rounded=0;" edge="1" parent="1">
          <mxGeometry width="50" height="50" relative="1" as="geometry">
            <mxPoint x="1139" y="2170" as="sourcePoint" />
            <mxPoint x="1139.17" y="1360" as="targetPoint" />
          </mxGeometry>
        </mxCell>
        <mxCell id="TU8794vIS2MuA3qGIEtW-3" value="" style="endArrow=classic;html=1;rounded=0;exitX=1.003;exitY=0.293;exitDx=0;exitDy=0;exitPerimeter=0;" edge="1" parent="1" source="TU8794vIS2MuA3qGIEtW-9">
          <mxGeometry width="50" height="50" relative="1" as="geometry">
            <mxPoint x="1140" y="790" as="sourcePoint" />
            <mxPoint x="1140" y="1190" as="targetPoint" />
          </mxGeometry>
        </mxCell>
        <mxCell id="TU8794vIS2MuA3qGIEtW-4" value="" style="endArrow=classic;html=1;rounded=0;" edge="1" parent="1">
          <mxGeometry width="50" height="50" relative="1" as="geometry">
            <mxPoint x="1290" y="1270" as="sourcePoint" />
            <mxPoint x="2500" y="1260" as="targetPoint" />
          </mxGeometry>
        </mxCell>
        <mxCell id="TU8794vIS2MuA3qGIEtW-5" value="Система контура&lt;div&gt;финансов&lt;/div&gt;" style="text;html=1;align=center;verticalAlign=middle;resizable=0;points=[];autosize=1;strokeColor=none;fillColor=none;" vertex="1" parent="1">
          <mxGeometry x="1025" y="1445" width="120" height="40" as="geometry" />
        </mxCell>
        <mxCell id="TU8794vIS2MuA3qGIEtW-6" value="Данные пользователя(&lt;div&gt;штрих код товара,&lt;/div&gt;&lt;div&gt;ID сотрудника,&lt;/div&gt;&lt;div&gt;&lt;span style=&quot;background-color: transparent; color: light-dark(rgb(0, 0, 0), rgb(255, 255, 255));&quot;&gt;коэфиценты оплаты)&lt;/span&gt;&lt;/div&gt;" style="text;html=1;align=center;verticalAlign=middle;resizable=0;points=[];autosize=1;strokeColor=none;fillColor=none;" vertex="1" parent="1">
          <mxGeometry x="960" y="1205" width="150" height="70" as="geometry" />
        </mxCell>
        <mxCell id="TU8794vIS2MuA3qGIEtW-7" value="" style="endArrow=classic;html=1;rounded=0;exitX=0;exitY=0;exitDx=0;exitDy=0;exitPerimeter=0;" edge="1" parent="1" source="TU8794vIS2MuA3qGIEtW-10">
          <mxGeometry width="50" height="50" relative="1" as="geometry">
            <mxPoint x="1210" y="790" as="sourcePoint" />
            <mxPoint x="1210" y="1190" as="targetPoint" />
          </mxGeometry>
        </mxCell>
        <mxCell id="TU8794vIS2MuA3qGIEtW-8" value="итоговые данные о расчёте оплаты" style="text;html=1;align=center;verticalAlign=middle;resizable=0;points=[];autosize=1;strokeColor=none;fillColor=none;" vertex="1" parent="1">
          <mxGeometry x="1315" y="1245" width="230" height="30" as="geometry" />
        </mxCell>
        <mxCell id="TU8794vIS2MuA3qGIEtW-9" value="Политики контуров&lt;div&gt;финансов&lt;/div&gt;" style="text;html=1;align=center;verticalAlign=middle;resizable=0;points=[];autosize=1;strokeColor=none;fillColor=none;" vertex="1" parent="1">
          <mxGeometry x="1015" y="-370" width="130" height="40" as="geometry" />
        </mxCell>
        <mxCell id="TU8794vIS2MuA3qGIEtW-10" value="Доступность системы WMS" style="text;html=1;align=center;verticalAlign=middle;resizable=0;points=[];autosize=1;strokeColor=none;fillColor=none;" vertex="1" parent="1">
          <mxGeometry x="1200" y="-360" width="180" height="30" as="geometry" />
        </mxCell>
        <mxCell id="TU8794vIS2MuA3qGIEtW-11" value="" style="endArrow=classic;html=1;rounded=0;" edge="1" parent="1">
          <mxGeometry width="50" height="50" relative="1" as="geometry">
            <mxPoint x="1224" y="2170" as="sourcePoint" />
            <mxPoint x="1224.17" y="1360" as="targetPoint" />
          </mxGeometry>
        </mxCell>
        <mxCell id="TU8794vIS2MuA3qGIEtW-12" value="Система автотарифов" style="text;html=1;align=center;verticalAlign=middle;resizable=0;points=[];autosize=1;strokeColor=none;fillColor=none;" vertex="1" parent="1">
          <mxGeometry x="1250" y="1455" width="150" height="30" as="geometry" />
        </mxCell>
        <mxCell id="TU8794vIS2MuA3qGIEtW-13" value="" style="endArrow=classic;html=1;rounded=0;" edge="1" parent="1">
          <mxGeometry width="50" height="50" relative="1" as="geometry">
            <mxPoint x="40" y="1280" as="sourcePoint" />
            <mxPoint x="1110" y="1280" as="targetPoint" />
          </mxGeometry>
        </mxCell>
        <mxCell id="TU8794vIS2MuA3qGIEtW-14" value="отправка оплаты на личный счёт работника" style="html=1;whiteSpace=wrap;" vertex="1" parent="1">
          <mxGeometry x="1870" y="1640" width="180" height="170" as="geometry" />
        </mxCell>
        <mxCell id="TU8794vIS2MuA3qGIEtW-15" value="" style="endArrow=classic;html=1;rounded=0;" edge="1" parent="1">
          <mxGeometry width="50" height="50" relative="1" as="geometry">
            <mxPoint x="1959" y="2180" as="sourcePoint" />
            <mxPoint x="1959.3700000000001" y="1810" as="targetPoint" />
          </mxGeometry>
        </mxCell>
        <mxCell id="TU8794vIS2MuA3qGIEtW-16" value="" style="endArrow=classic;html=1;rounded=0;" edge="1" parent="1">
          <mxGeometry width="50" height="50" relative="1" as="geometry">
            <mxPoint x="1890" y="-360" as="sourcePoint" />
            <mxPoint x="1900" y="1640" as="targetPoint" />
          </mxGeometry>
        </mxCell>
        <mxCell id="TU8794vIS2MuA3qGIEtW-17" value="" style="endArrow=classic;html=1;rounded=0;" edge="1" parent="1">
          <mxGeometry width="50" height="50" relative="1" as="geometry">
            <mxPoint x="2050" y="1720" as="sourcePoint" />
            <mxPoint x="2504.1176470588234" y="1720" as="targetPoint" />
          </mxGeometry>
        </mxCell>
        <mxCell id="TU8794vIS2MuA3qGIEtW-18" value="Система контура&lt;div&gt;финансов&lt;/div&gt;" style="text;html=1;align=center;verticalAlign=middle;resizable=0;points=[];autosize=1;strokeColor=none;fillColor=none;" vertex="1" parent="1">
          <mxGeometry x="1820" y="2140" width="120" height="40" as="geometry" />
        </mxCell>
        <mxCell id="TU8794vIS2MuA3qGIEtW-19" value="Данные пользователя(&lt;div&gt;ID сотрудника,&lt;/div&gt;&lt;div&gt;&lt;span style=&quot;background-color: transparent; color: light-dark(rgb(0, 0, 0), rgb(255, 255, 255));&quot;&gt;сумма оплаты)&lt;/span&gt;&lt;/div&gt;" style="text;html=1;align=center;verticalAlign=middle;resizable=0;points=[];autosize=1;strokeColor=none;fillColor=none;" vertex="1" parent="1">
          <mxGeometry x="1720" y="1660" width="150" height="60" as="geometry" />
        </mxCell>
        <mxCell id="TU8794vIS2MuA3qGIEtW-20" value="" style="endArrow=classic;html=1;rounded=0;" edge="1" parent="1">
          <mxGeometry width="50" height="50" relative="1" as="geometry">
            <mxPoint x="1960" y="-360" as="sourcePoint" />
            <mxPoint x="1970" y="1640" as="targetPoint" />
          </mxGeometry>
        </mxCell>
        <mxCell id="TU8794vIS2MuA3qGIEtW-21" value="деньги на счёте сотрудника" style="text;html=1;align=center;verticalAlign=middle;resizable=0;points=[];autosize=1;strokeColor=none;fillColor=none;" vertex="1" parent="1">
          <mxGeometry x="2100" y="1695" width="180" height="30" as="geometry" />
        </mxCell>
        <mxCell id="TU8794vIS2MuA3qGIEtW-22" value="Политики контуров&lt;div&gt;финансов&lt;/div&gt;" style="text;html=1;align=center;verticalAlign=middle;resizable=0;points=[];autosize=1;strokeColor=none;fillColor=none;" vertex="1" parent="1">
          <mxGeometry x="1750" y="-380" width="130" height="40" as="geometry" />
        </mxCell>
        <mxCell id="TU8794vIS2MuA3qGIEtW-23" value="Доступность системы WMS" style="text;html=1;align=center;verticalAlign=middle;resizable=0;points=[];autosize=1;strokeColor=none;fillColor=none;" vertex="1" parent="1">
          <mxGeometry x="1970" y="-380" width="180" height="30" as="geometry" />
        </mxCell>
        <mxCell id="TU8794vIS2MuA3qGIEtW-26" value="" style="endArrow=classic;html=1;rounded=0;" edge="1" parent="1">
          <mxGeometry width="50" height="50" relative="1" as="geometry">
            <mxPoint x="36" y="1730" as="sourcePoint" />
            <mxPoint x="1870" y="1730" as="targetPoint" />
          </mxGeometry>
        </mxCell>
      </root>
    </mxGraphModel>
  </diagram>
  <diagram id="0b91kr9clt3o9iVvdX0g" name="lab2">
    <mxGraphModel dx="2195" dy="1079" grid="0" gridSize="10" guides="1" tooltips="1" connect="1" arrows="1" fold="1" page="0" pageScale="1" pageWidth="827" pageHeight="1169" math="0" shadow="0">
      <root>
        <mxCell id="0" />
        <mxCell id="1" parent="0" />
        <mxCell id="44nUAomQyxVJfeW0wCLg-2" value="Посетитель" style="shape=umlActor;verticalLabelPosition=bottom;verticalAlign=top;html=1;outlineConnect=0;" vertex="1" parent="1">
          <mxGeometry x="240" y="230" width="30" height="60" as="geometry" />
        </mxCell>
        <mxCell id="44nUAomQyxVJfeW0wCLg-3" value="Пройти регистрацию" style="ellipse;whiteSpace=wrap;html=1;" vertex="1" parent="1">
          <mxGeometry x="350" y="170" width="170" height="30" as="geometry" />
        </mxCell>
        <mxCell id="44nUAomQyxVJfeW0wCLg-4" value="Посмотреть ленту" style="ellipse;whiteSpace=wrap;html=1;" vertex="1" parent="1">
          <mxGeometry x="420" y="245" width="170" height="30" as="geometry" />
        </mxCell>
        <mxCell id="44nUAomQyxVJfeW0wCLg-5" value="Зайти на профиль пользователей" style="ellipse;whiteSpace=wrap;html=1;" vertex="1" parent="1">
          <mxGeometry x="520" y="320" width="180" height="50" as="geometry" />
        </mxCell>
        <mxCell id="44nUAomQyxVJfeW0wCLg-6" value="" style="endArrow=none;html=1;rounded=0;entryX=0;entryY=0.5;entryDx=0;entryDy=0;exitX=1;exitY=0.3333333333333333;exitDx=0;exitDy=0;exitPerimeter=0;" edge="1" parent="1" source="44nUAomQyxVJfeW0wCLg-2" target="44nUAomQyxVJfeW0wCLg-3">
          <mxGeometry width="50" height="50" relative="1" as="geometry">
            <mxPoint x="300" y="240" as="sourcePoint" />
            <mxPoint x="350" y="190" as="targetPoint" />
          </mxGeometry>
        </mxCell>
        <mxCell id="44nUAomQyxVJfeW0wCLg-7" value="" style="endArrow=none;html=1;rounded=0;exitX=1;exitY=0.3333333333333333;exitDx=0;exitDy=0;exitPerimeter=0;entryX=0;entryY=0.5;entryDx=0;entryDy=0;" edge="1" parent="1" source="44nUAomQyxVJfeW0wCLg-2" target="44nUAomQyxVJfeW0wCLg-4">
          <mxGeometry width="50" height="50" relative="1" as="geometry">
            <mxPoint x="400" y="370" as="sourcePoint" />
            <mxPoint x="450" y="320" as="targetPoint" />
          </mxGeometry>
        </mxCell>
        <mxCell id="44nUAomQyxVJfeW0wCLg-8" value="" style="endArrow=none;html=1;rounded=0;exitX=1;exitY=0.3333333333333333;exitDx=0;exitDy=0;exitPerimeter=0;entryX=0;entryY=0.5;entryDx=0;entryDy=0;" edge="1" parent="1" source="44nUAomQyxVJfeW0wCLg-2" target="44nUAomQyxVJfeW0wCLg-5">
          <mxGeometry width="50" height="50" relative="1" as="geometry">
            <mxPoint x="400" y="370" as="sourcePoint" />
            <mxPoint x="450" y="320" as="targetPoint" />
          </mxGeometry>
        </mxCell>
        <mxCell id="44nUAomQyxVJfeW0wCLg-9" value="" style="endArrow=open;dashed=1;html=1;dashPattern=1 3;strokeWidth=2;rounded=0;entryX=0.656;entryY=0.94;entryDx=0;entryDy=0;entryPerimeter=0;exitX=0.336;exitY=-0.029;exitDx=0;exitDy=0;exitPerimeter=0;targetPerimeterSpacing=5;endFill=0;" edge="1" parent="1" source="44nUAomQyxVJfeW0wCLg-5" target="44nUAomQyxVJfeW0wCLg-4">
          <mxGeometry width="50" height="50" relative="1" as="geometry">
            <mxPoint x="590" y="300" as="sourcePoint" />
            <mxPoint x="640" y="250" as="targetPoint" />
            <Array as="points">
              <mxPoint x="550" y="290" />
            </Array>
          </mxGeometry>
        </mxCell>
        <mxCell id="44nUAomQyxVJfeW0wCLg-10" value="&quot;extend&quot;" style="text;html=1;align=center;verticalAlign=middle;resizable=0;points=[];autosize=1;strokeColor=none;fillColor=none;" vertex="1" parent="1">
          <mxGeometry x="555" y="278" width="70" height="30" as="geometry" />
        </mxCell>
        <mxCell id="44nUAomQyxVJfeW0wCLg-11" value="Пользователь" style="shape=umlActor;verticalLabelPosition=bottom;verticalAlign=top;html=1;outlineConnect=0;" vertex="1" parent="1">
          <mxGeometry x="240" y="450" width="30" height="60" as="geometry" />
        </mxCell>
        <mxCell id="44nUAomQyxVJfeW0wCLg-12" value="Посмотреть пост" style="ellipse;whiteSpace=wrap;html=1;" vertex="1" parent="1">
          <mxGeometry x="680" y="245" width="130" height="30" as="geometry" />
        </mxCell>
        <mxCell id="44nUAomQyxVJfeW0wCLg-13" value="" style="endArrow=open;dashed=1;html=1;dashPattern=1 3;strokeWidth=2;rounded=0;entryX=1;entryY=0.5;entryDx=0;entryDy=0;exitX=0;exitY=0.5;exitDx=0;exitDy=0;targetPerimeterSpacing=5;endFill=0;" edge="1" parent="1" source="44nUAomQyxVJfeW0wCLg-12" target="44nUAomQyxVJfeW0wCLg-4">
          <mxGeometry width="50" height="50" relative="1" as="geometry">
            <mxPoint x="673" y="256" as="sourcePoint" />
            <mxPoint x="625" y="210" as="targetPoint" />
            <Array as="points" />
          </mxGeometry>
        </mxCell>
        <mxCell id="44nUAomQyxVJfeW0wCLg-14" value="&quot;extend&quot;" style="text;html=1;align=center;verticalAlign=middle;resizable=0;points=[];autosize=1;strokeColor=none;fillColor=none;" vertex="1" parent="1">
          <mxGeometry x="610" y="230" width="70" height="30" as="geometry" />
        </mxCell>
        <mxCell id="44nUAomQyxVJfeW0wCLg-15" value="" style="endArrow=blockThin;html=1;rounded=0;endFill=0;" edge="1" parent="1">
          <mxGeometry width="50" height="50" relative="1" as="geometry">
            <mxPoint x="255" y="450" as="sourcePoint" />
            <mxPoint x="255" y="320" as="targetPoint" />
          </mxGeometry>
        </mxCell>
        <mxCell id="44nUAomQyxVJfeW0wCLg-16" value="Оставить комментарий" style="ellipse;whiteSpace=wrap;html=1;" vertex="1" parent="1">
          <mxGeometry x="490" y="450" width="150" height="40" as="geometry" />
        </mxCell>
        <mxCell id="44nUAomQyxVJfeW0wCLg-17" value="" style="endArrow=none;html=1;rounded=0;exitX=0;exitY=0.5;exitDx=0;exitDy=0;" edge="1" parent="1" source="44nUAomQyxVJfeW0wCLg-16">
          <mxGeometry width="50" height="50" relative="1" as="geometry">
            <mxPoint x="520" y="460" as="sourcePoint" />
            <mxPoint x="270" y="470" as="targetPoint" />
          </mxGeometry>
        </mxCell>
        <mxCell id="44nUAomQyxVJfeW0wCLg-18" value="" style="endArrow=open;dashed=1;html=1;dashPattern=1 3;strokeWidth=2;rounded=0;entryX=0.672;entryY=0.994;entryDx=0;entryDy=0;exitX=0.956;exitY=0.272;exitDx=0;exitDy=0;targetPerimeterSpacing=5;endFill=0;exitPerimeter=0;entryPerimeter=0;" edge="1" parent="1" source="44nUAomQyxVJfeW0wCLg-16" target="44nUAomQyxVJfeW0wCLg-12">
          <mxGeometry width="50" height="50" relative="1" as="geometry">
            <mxPoint x="760" y="410" as="sourcePoint" />
            <mxPoint x="670" y="410" as="targetPoint" />
            <Array as="points" />
          </mxGeometry>
        </mxCell>
        <mxCell id="44nUAomQyxVJfeW0wCLg-19" value="&quot;include&quot;" style="text;html=1;align=center;verticalAlign=middle;resizable=0;points=[];autosize=1;strokeColor=none;fillColor=none;" vertex="1" parent="1">
          <mxGeometry x="600" y="398" width="70" height="30" as="geometry" />
        </mxCell>
        <mxCell id="44nUAomQyxVJfeW0wCLg-20" value="Поставить реакцию" style="ellipse;whiteSpace=wrap;html=1;" vertex="1" parent="1">
          <mxGeometry x="490" y="510" width="150" height="35" as="geometry" />
        </mxCell>
        <mxCell id="44nUAomQyxVJfeW0wCLg-21" value="" style="endArrow=open;dashed=1;html=1;dashPattern=1 3;strokeWidth=2;rounded=0;exitX=1;exitY=0.5;exitDx=0;exitDy=0;targetPerimeterSpacing=5;endFill=0;entryX=0.739;entryY=0.955;entryDx=0;entryDy=0;entryPerimeter=0;" edge="1" parent="1" source="44nUAomQyxVJfeW0wCLg-20" target="44nUAomQyxVJfeW0wCLg-12">
          <mxGeometry width="50" height="50" relative="1" as="geometry">
            <mxPoint x="643" y="471" as="sourcePoint" />
            <mxPoint x="760" y="280" as="targetPoint" />
            <Array as="points" />
          </mxGeometry>
        </mxCell>
        <mxCell id="44nUAomQyxVJfeW0wCLg-22" value="&quot;include&quot;" style="text;html=1;align=center;verticalAlign=middle;resizable=0;points=[];autosize=1;strokeColor=none;fillColor=none;" vertex="1" parent="1">
          <mxGeometry x="680" y="440" width="70" height="30" as="geometry" />
        </mxCell>
        <mxCell id="44nUAomQyxVJfeW0wCLg-23" value="" style="endArrow=none;html=1;rounded=0;exitX=1;exitY=0.3333333333333333;exitDx=0;exitDy=0;exitPerimeter=0;entryX=0;entryY=0.5;entryDx=0;entryDy=0;" edge="1" parent="1" source="44nUAomQyxVJfeW0wCLg-11" target="44nUAomQyxVJfeW0wCLg-20">
          <mxGeometry width="50" height="50" relative="1" as="geometry">
            <mxPoint x="650" y="490" as="sourcePoint" />
            <mxPoint x="700" y="440" as="targetPoint" />
          </mxGeometry>
        </mxCell>
        <mxCell id="44nUAomQyxVJfeW0wCLg-24" value="подписаться на пользователя" style="ellipse;whiteSpace=wrap;html=1;" vertex="1" parent="1">
          <mxGeometry x="330" y="540" width="120" height="40" as="geometry" />
        </mxCell>
        <mxCell id="44nUAomQyxVJfeW0wCLg-25" value="" style="endArrow=none;html=1;rounded=0;exitX=0;exitY=0.5;exitDx=0;exitDy=0;" edge="1" parent="1" source="44nUAomQyxVJfeW0wCLg-24">
          <mxGeometry width="50" height="50" relative="1" as="geometry">
            <mxPoint x="350" y="590" as="sourcePoint" />
            <mxPoint x="270" y="470" as="targetPoint" />
          </mxGeometry>
        </mxCell>
        <mxCell id="44nUAomQyxVJfeW0wCLg-26" value="" style="endArrow=open;dashed=1;html=1;dashPattern=1 3;strokeWidth=2;rounded=0;entryX=0.03;entryY=0.696;entryDx=0;entryDy=0;exitX=0.5;exitY=0;exitDx=0;exitDy=0;targetPerimeterSpacing=5;endFill=0;entryPerimeter=0;" edge="1" parent="1" source="44nUAomQyxVJfeW0wCLg-24" target="44nUAomQyxVJfeW0wCLg-5">
          <mxGeometry width="50" height="50" relative="1" as="geometry">
            <mxPoint x="421" y="556" as="sourcePoint" />
            <mxPoint x="555" y="370" as="targetPoint" />
            <Array as="points" />
          </mxGeometry>
        </mxCell>
        <mxCell id="44nUAomQyxVJfeW0wCLg-27" value="&quot;include&quot;" style="text;html=1;align=center;verticalAlign=middle;resizable=0;points=[];autosize=1;strokeColor=none;fillColor=none;" vertex="1" parent="1">
          <mxGeometry x="400" y="420" width="70" height="30" as="geometry" />
        </mxCell>
        <mxCell id="44nUAomQyxVJfeW0wCLg-28" value="" style="endArrow=open;dashed=1;html=1;dashPattern=1 3;strokeWidth=2;rounded=0;entryX=0.201;entryY=0.968;entryDx=0;entryDy=0;targetPerimeterSpacing=5;endFill=0;entryPerimeter=0;" edge="1" parent="1" source="44nUAomQyxVJfeW0wCLg-5" target="44nUAomQyxVJfeW0wCLg-12">
          <mxGeometry width="50" height="50" relative="1" as="geometry">
            <mxPoint x="700" y="310" as="sourcePoint" />
            <mxPoint x="600" y="270" as="targetPoint" />
            <Array as="points" />
          </mxGeometry>
        </mxCell>
        <mxCell id="44nUAomQyxVJfeW0wCLg-29" value="&quot;extend&quot;" style="text;html=1;align=center;verticalAlign=middle;resizable=0;points=[];autosize=1;strokeColor=none;fillColor=none;" vertex="1" parent="1">
          <mxGeometry x="620" y="270" width="70" height="30" as="geometry" />
        </mxCell>
        <mxCell id="44nUAomQyxVJfeW0wCLg-30" value="" style="endArrow=open;dashed=1;html=1;dashPattern=1 3;strokeWidth=2;rounded=0;entryX=0.917;entryY=0.147;entryDx=0;entryDy=0;targetPerimeterSpacing=5;endFill=0;entryPerimeter=0;exitX=0.382;exitY=0.994;exitDx=0;exitDy=0;exitPerimeter=0;" edge="1" parent="1" source="44nUAomQyxVJfeW0wCLg-12" target="44nUAomQyxVJfeW0wCLg-5">
          <mxGeometry width="50" height="50" relative="1" as="geometry">
            <mxPoint x="652" y="338" as="sourcePoint" />
            <mxPoint x="716" y="290" as="targetPoint" />
            <Array as="points" />
          </mxGeometry>
        </mxCell>
        <mxCell id="44nUAomQyxVJfeW0wCLg-31" value="&quot;extend&quot;" style="text;html=1;align=center;verticalAlign=middle;resizable=0;points=[];autosize=1;strokeColor=none;fillColor=none;" vertex="1" parent="1">
          <mxGeometry x="670" y="290" width="70" height="30" as="geometry" />
        </mxCell>
        <mxCell id="44nUAomQyxVJfeW0wCLg-32" value="Получать уведомления о публикациях пользователя" style="ellipse;whiteSpace=wrap;html=1;" vertex="1" parent="1">
          <mxGeometry x="310" y="600" width="180" height="50" as="geometry" />
        </mxCell>
        <mxCell id="44nUAomQyxVJfeW0wCLg-33" value="" style="endArrow=open;dashed=1;html=1;dashPattern=1 3;strokeWidth=2;rounded=0;entryX=0.039;entryY=0.744;entryDx=0;entryDy=0;exitX=0.715;exitY=0.014;exitDx=0;exitDy=0;targetPerimeterSpacing=5;endFill=0;entryPerimeter=0;exitPerimeter=0;" edge="1" parent="1" source="44nUAomQyxVJfeW0wCLg-32" target="44nUAomQyxVJfeW0wCLg-5">
          <mxGeometry width="50" height="50" relative="1" as="geometry">
            <mxPoint x="400" y="550" as="sourcePoint" />
            <mxPoint x="535" y="365" as="targetPoint" />
            <Array as="points" />
          </mxGeometry>
        </mxCell>
        <mxCell id="44nUAomQyxVJfeW0wCLg-34" value="&quot;include&quot;" style="text;html=1;align=center;verticalAlign=middle;resizable=0;points=[];autosize=1;strokeColor=none;fillColor=none;" vertex="1" parent="1">
          <mxGeometry x="500" y="398" width="70" height="30" as="geometry" />
        </mxCell>
        <mxCell id="44nUAomQyxVJfeW0wCLg-35" value="" style="endArrow=none;html=1;rounded=0;exitX=0.042;exitY=0.312;exitDx=0;exitDy=0;exitPerimeter=0;" edge="1" parent="1" source="44nUAomQyxVJfeW0wCLg-32">
          <mxGeometry width="50" height="50" relative="1" as="geometry">
            <mxPoint x="220" y="600" as="sourcePoint" />
            <mxPoint x="270" y="470" as="targetPoint" />
          </mxGeometry>
        </mxCell>
        <mxCell id="44nUAomQyxVJfeW0wCLg-36" value="Редактировать свой профиль" style="ellipse;whiteSpace=wrap;html=1;" vertex="1" parent="1">
          <mxGeometry x="575" y="560" width="120" height="70" as="geometry" />
        </mxCell>
        <mxCell id="44nUAomQyxVJfeW0wCLg-37" value="" style="endArrow=none;html=1;rounded=0;exitX=0.015;exitY=0.312;exitDx=0;exitDy=0;exitPerimeter=0;" edge="1" parent="1" source="44nUAomQyxVJfeW0wCLg-36">
          <mxGeometry width="50" height="50" relative="1" as="geometry">
            <mxPoint x="510" y="530" as="sourcePoint" />
            <mxPoint x="270" y="470" as="targetPoint" />
          </mxGeometry>
        </mxCell>
        <mxCell id="44nUAomQyxVJfeW0wCLg-38" value="" style="endArrow=open;dashed=1;html=1;dashPattern=1 3;strokeWidth=2;rounded=0;entryX=0.039;entryY=0.744;entryDx=0;entryDy=0;targetPerimeterSpacing=5;endFill=0;entryPerimeter=0;" edge="1" parent="1">
          <mxGeometry width="50" height="50" relative="1" as="geometry">
            <mxPoint x="600" y="680" as="sourcePoint" />
            <mxPoint x="610" y="630" as="targetPoint" />
            <Array as="points" />
          </mxGeometry>
        </mxCell>
        <mxCell id="44nUAomQyxVJfeW0wCLg-39" value="Создавать посты" style="ellipse;whiteSpace=wrap;html=1;" vertex="1" parent="1">
          <mxGeometry x="540" y="680" width="120" height="40" as="geometry" />
        </mxCell>
        <mxCell id="44nUAomQyxVJfeW0wCLg-40" value="&quot;extend&quot;" style="text;html=1;align=center;verticalAlign=middle;resizable=0;points=[];autosize=1;strokeColor=none;fillColor=none;" vertex="1" parent="1">
          <mxGeometry x="540" y="640" width="70" height="30" as="geometry" />
        </mxCell>
        <mxCell id="44nUAomQyxVJfeW0wCLg-41" value="Админ" style="shape=umlActor;verticalLabelPosition=bottom;verticalAlign=top;html=1;outlineConnect=0;" vertex="1" parent="1">
          <mxGeometry x="980" y="510" width="30" height="60" as="geometry" />
        </mxCell>
        <mxCell id="44nUAomQyxVJfeW0wCLg-42" value="" style="endArrow=blockThin;html=1;rounded=0;endFill=0;" edge="1" parent="1">
          <mxGeometry width="50" height="50" relative="1" as="geometry">
            <mxPoint x="1000" y="590" as="sourcePoint" />
            <mxPoint x="255" y="540" as="targetPoint" />
            <Array as="points">
              <mxPoint x="1000" y="840" />
              <mxPoint x="490" y="840" />
              <mxPoint x="255" y="840" />
            </Array>
          </mxGeometry>
        </mxCell>
        <mxCell id="44nUAomQyxVJfeW0wCLg-43" value="Удалить пост" style="ellipse;whiteSpace=wrap;html=1;" vertex="1" parent="1">
          <mxGeometry x="827" y="410" width="120" height="43" as="geometry" />
        </mxCell>
        <mxCell id="44nUAomQyxVJfeW0wCLg-44" value="" style="endArrow=none;html=1;rounded=0;entryX=1;entryY=1;entryDx=0;entryDy=0;" edge="1" parent="1" target="44nUAomQyxVJfeW0wCLg-43">
          <mxGeometry width="50" height="50" relative="1" as="geometry">
            <mxPoint x="980" y="530" as="sourcePoint" />
            <mxPoint x="750" y="430" as="targetPoint" />
          </mxGeometry>
        </mxCell>
        <mxCell id="44nUAomQyxVJfeW0wCLg-45" value="" style="endArrow=open;dashed=1;html=1;dashPattern=1 3;strokeWidth=2;rounded=0;exitX=0.5;exitY=0;exitDx=0;exitDy=0;targetPerimeterSpacing=5;endFill=0;entryX=1;entryY=0.5;entryDx=0;entryDy=0;" edge="1" parent="1" source="44nUAomQyxVJfeW0wCLg-43" target="44nUAomQyxVJfeW0wCLg-12">
          <mxGeometry width="50" height="50" relative="1" as="geometry">
            <mxPoint x="920" y="398" as="sourcePoint" />
            <mxPoint x="1056" y="144" as="targetPoint" />
            <Array as="points" />
          </mxGeometry>
        </mxCell>
        <mxCell id="44nUAomQyxVJfeW0wCLg-46" value="&quot;include&quot;" style="text;html=1;align=center;verticalAlign=middle;resizable=0;points=[];autosize=1;strokeColor=none;fillColor=none;" vertex="1" parent="1">
          <mxGeometry x="840" y="320" width="70" height="30" as="geometry" />
        </mxCell>
        <mxCell id="44nUAomQyxVJfeW0wCLg-47" value="Заблокировать пользователя" style="ellipse;whiteSpace=wrap;html=1;" vertex="1" parent="1">
          <mxGeometry x="810" y="502.5" width="120" height="50" as="geometry" />
        </mxCell>
        <mxCell id="44nUAomQyxVJfeW0wCLg-48" value="" style="endArrow=none;html=1;rounded=0;entryX=0;entryY=0.3333333333333333;entryDx=0;entryDy=0;entryPerimeter=0;exitX=1;exitY=0.5;exitDx=0;exitDy=0;" edge="1" parent="1" source="44nUAomQyxVJfeW0wCLg-47" target="44nUAomQyxVJfeW0wCLg-41">
          <mxGeometry width="50" height="50" relative="1" as="geometry">
            <mxPoint x="910" y="585" as="sourcePoint" />
            <mxPoint x="960" y="535" as="targetPoint" />
          </mxGeometry>
        </mxCell>
        <mxCell id="44nUAomQyxVJfeW0wCLg-49" value="" style="endArrow=open;dashed=1;html=1;dashPattern=1 3;strokeWidth=2;rounded=0;exitX=0.07;exitY=0.316;exitDx=0;exitDy=0;targetPerimeterSpacing=5;endFill=0;entryX=1;entryY=0.5;entryDx=0;entryDy=0;exitPerimeter=0;" edge="1" parent="1">
          <mxGeometry width="50" height="50" relative="1" as="geometry">
            <mxPoint x="818.3999999999999" y="515.6500000000002" as="sourcePoint" />
            <mxPoint x="700" y="347.35" as="targetPoint" />
            <Array as="points" />
          </mxGeometry>
        </mxCell>
        <mxCell id="44nUAomQyxVJfeW0wCLg-50" value="&quot;include&quot;" style="text;html=1;align=center;verticalAlign=middle;resizable=0;points=[];autosize=1;strokeColor=none;fillColor=none;" vertex="1" parent="1">
          <mxGeometry x="750" y="410" width="70" height="30" as="geometry" />
        </mxCell>
        <mxCell id="BpfTUyrRtMqFDufAwakE-50" value="сотрудник склада" style="shape=umlActor;verticalLabelPosition=bottom;verticalAlign=top;html=1;outlineConnect=0;" vertex="1" parent="1">
          <mxGeometry x="242" y="1282" width="30" height="60" as="geometry" />
        </mxCell>
        <mxCell id="BpfTUyrRtMqFDufAwakE-51" value="отсканировать штирих код" style="ellipse;whiteSpace=wrap;html=1;" vertex="1" parent="1">
          <mxGeometry x="352" y="1222" width="170" height="30" as="geometry" />
        </mxCell>
        <mxCell id="BpfTUyrRtMqFDufAwakE-52" value="отсортировать посылку" style="ellipse;whiteSpace=wrap;html=1;" vertex="1" parent="1">
          <mxGeometry x="422" y="1297" width="170" height="30" as="geometry" />
        </mxCell>
        <mxCell id="BpfTUyrRtMqFDufAwakE-54" value="" style="endArrow=none;html=1;rounded=0;entryX=0;entryY=0.5;entryDx=0;entryDy=0;exitX=1;exitY=0.3333333333333333;exitDx=0;exitDy=0;exitPerimeter=0;" edge="1" parent="1" source="BpfTUyrRtMqFDufAwakE-50" target="BpfTUyrRtMqFDufAwakE-51">
          <mxGeometry width="50" height="50" relative="1" as="geometry">
            <mxPoint x="302" y="1292" as="sourcePoint" />
            <mxPoint x="352" y="1242" as="targetPoint" />
          </mxGeometry>
        </mxCell>
        <mxCell id="BpfTUyrRtMqFDufAwakE-55" value="" style="endArrow=none;html=1;rounded=0;exitX=1;exitY=0.3333333333333333;exitDx=0;exitDy=0;exitPerimeter=0;entryX=0;entryY=0.5;entryDx=0;entryDy=0;" edge="1" parent="1" source="BpfTUyrRtMqFDufAwakE-50" target="BpfTUyrRtMqFDufAwakE-52">
          <mxGeometry width="50" height="50" relative="1" as="geometry">
            <mxPoint x="402" y="1422" as="sourcePoint" />
            <mxPoint x="452" y="1372" as="targetPoint" />
          </mxGeometry>
        </mxCell>
        <mxCell id="BpfTUyrRtMqFDufAwakE-59" value="Система финансов" style="shape=umlActor;verticalLabelPosition=bottom;verticalAlign=top;html=1;outlineConnect=0;" vertex="1" parent="1">
          <mxGeometry x="242" y="1502" width="30" height="60" as="geometry" />
        </mxCell>
        <mxCell id="BpfTUyrRtMqFDufAwakE-72" value="определить базовый тариф" style="ellipse;whiteSpace=wrap;html=1;" vertex="1" parent="1">
          <mxGeometry x="365" y="1477" width="120" height="40" as="geometry" />
        </mxCell>
        <mxCell id="BpfTUyrRtMqFDufAwakE-73" value="" style="endArrow=none;html=1;rounded=0;exitX=0;exitY=0.5;exitDx=0;exitDy=0;" edge="1" parent="1" source="BpfTUyrRtMqFDufAwakE-72">
          <mxGeometry width="50" height="50" relative="1" as="geometry">
            <mxPoint x="352" y="1642" as="sourcePoint" />
            <mxPoint x="272" y="1522" as="targetPoint" />
          </mxGeometry>
        </mxCell>
        <mxCell id="BpfTUyrRtMqFDufAwakE-80" value="Отправка средств на личный счёт" style="ellipse;whiteSpace=wrap;html=1;" vertex="1" parent="1">
          <mxGeometry x="378" y="1542" width="180" height="50" as="geometry" />
        </mxCell>
        <mxCell id="BpfTUyrRtMqFDufAwakE-83" value="" style="endArrow=none;html=1;rounded=0;exitX=0.042;exitY=0.312;exitDx=0;exitDy=0;exitPerimeter=0;" edge="1" parent="1" source="BpfTUyrRtMqFDufAwakE-80">
          <mxGeometry width="50" height="50" relative="1" as="geometry">
            <mxPoint x="222" y="1652" as="sourcePoint" />
            <mxPoint x="272" y="1522" as="targetPoint" />
          </mxGeometry>
        </mxCell>
        <mxCell id="BpfTUyrRtMqFDufAwakE-89" value="система автотарифов" style="shape=umlActor;verticalLabelPosition=bottom;verticalAlign=top;html=1;outlineConnect=0;" vertex="1" parent="1">
          <mxGeometry x="982" y="1562" width="30" height="60" as="geometry" />
        </mxCell>
        <mxCell id="BpfTUyrRtMqFDufAwakE-95" value="определение кэффициентов в зависимости от внешних факторов" style="ellipse;whiteSpace=wrap;html=1;" vertex="1" parent="1">
          <mxGeometry x="785" y="1536" width="147" height="68.5" as="geometry" />
        </mxCell>
        <mxCell id="BpfTUyrRtMqFDufAwakE-96" value="" style="endArrow=none;html=1;rounded=0;entryX=0;entryY=0.3333333333333333;entryDx=0;entryDy=0;entryPerimeter=0;exitX=1;exitY=0.5;exitDx=0;exitDy=0;" edge="1" parent="1" source="BpfTUyrRtMqFDufAwakE-95" target="BpfTUyrRtMqFDufAwakE-89">
          <mxGeometry width="50" height="50" relative="1" as="geometry">
            <mxPoint x="912" y="1637" as="sourcePoint" />
            <mxPoint x="962" y="1587" as="targetPoint" />
          </mxGeometry>
        </mxCell>
        <mxCell id="VF-4ps832SwvJhYQ8bwD-1" value="система WMS" style="shape=umlActor;verticalLabelPosition=bottom;verticalAlign=top;html=1;outlineConnect=0;" vertex="1" parent="1">
          <mxGeometry x="982" y="1233" width="30" height="60" as="geometry" />
        </mxCell>
        <mxCell id="VF-4ps832SwvJhYQ8bwD-2" value="проверка на необходимость оплаты" style="ellipse;whiteSpace=wrap;html=1;" vertex="1" parent="1">
          <mxGeometry x="829" y="1133" width="120" height="43" as="geometry" />
        </mxCell>
        <mxCell id="VF-4ps832SwvJhYQ8bwD-3" value="" style="endArrow=none;html=1;rounded=0;entryX=1;entryY=1;entryDx=0;entryDy=0;" edge="1" parent="1" target="VF-4ps832SwvJhYQ8bwD-2">
          <mxGeometry width="50" height="50" relative="1" as="geometry">
            <mxPoint x="982" y="1253" as="sourcePoint" />
            <mxPoint x="752" y="1153" as="targetPoint" />
          </mxGeometry>
        </mxCell>
        <mxCell id="VF-4ps832SwvJhYQ8bwD-4" value="координация действий" style="ellipse;whiteSpace=wrap;html=1;" vertex="1" parent="1">
          <mxGeometry x="783" y="1307.75" width="147" height="68.5" as="geometry" />
        </mxCell>
        <mxCell id="VF-4ps832SwvJhYQ8bwD-5" value="" style="endArrow=none;html=1;rounded=0;entryX=0;entryY=0.3333333333333333;entryDx=0;entryDy=0;entryPerimeter=0;exitX=1;exitY=0.5;exitDx=0;exitDy=0;" edge="1" parent="1" source="VF-4ps832SwvJhYQ8bwD-4" target="VF-4ps832SwvJhYQ8bwD-1">
          <mxGeometry width="50" height="50" relative="1" as="geometry">
            <mxPoint x="912" y="1308" as="sourcePoint" />
            <mxPoint x="962" y="1258" as="targetPoint" />
          </mxGeometry>
        </mxCell>
        <mxCell id="VF-4ps832SwvJhYQ8bwD-6" value="" style="endArrow=open;dashed=1;html=1;dashPattern=1 3;strokeWidth=2;rounded=0;entryX=0;entryY=0.5;entryDx=0;entryDy=0;exitX=1;exitY=0.5;exitDx=0;exitDy=0;targetPerimeterSpacing=5;endFill=0;" edge="1" parent="1">
          <mxGeometry width="50" height="50" relative="1" as="geometry">
            <mxPoint x="592.000000000005" y="1311" as="sourcePoint" />
            <mxPoint x="828.9999999999927" y="1153.5000000000005" as="targetPoint" />
            <Array as="points" />
          </mxGeometry>
        </mxCell>
        <mxCell id="VF-4ps832SwvJhYQ8bwD-7" value="&quot;include&quot;" style="text;html=1;align=center;verticalAlign=middle;resizable=0;points=[];autosize=1;strokeColor=none;fillColor=none;" vertex="1" parent="1">
          <mxGeometry x="633" y="1207" width="70" height="30" as="geometry" />
        </mxCell>
        <mxCell id="VF-4ps832SwvJhYQ8bwD-8" value="" style="endArrow=open;dashed=1;html=1;dashPattern=1 3;strokeWidth=2;rounded=0;entryX=1;entryY=0.5;entryDx=0;entryDy=0;exitX=0;exitY=0.5;exitDx=0;exitDy=0;targetPerimeterSpacing=5;endFill=0;" edge="1" parent="1" source="VF-4ps832SwvJhYQ8bwD-4" target="BpfTUyrRtMqFDufAwakE-72">
          <mxGeometry width="50" height="50" relative="1" as="geometry">
            <mxPoint x="513.000000000005" y="1522.5" as="sourcePoint" />
            <mxPoint x="749.9999999999927" y="1365.0000000000005" as="targetPoint" />
            <Array as="points" />
          </mxGeometry>
        </mxCell>
        <mxCell id="VF-4ps832SwvJhYQ8bwD-9" value="&quot;include&quot;" style="text;html=1;align=center;verticalAlign=middle;resizable=0;points=[];autosize=1;strokeColor=none;fillColor=none;" vertex="1" parent="1">
          <mxGeometry x="565" y="1386" width="70" height="30" as="geometry" />
        </mxCell>
        <mxCell id="VF-4ps832SwvJhYQ8bwD-10" value="закончить сортировку" style="ellipse;whiteSpace=wrap;html=1;" vertex="1" parent="1">
          <mxGeometry x="329" y="1386" width="170" height="30" as="geometry" />
        </mxCell>
        <mxCell id="VF-4ps832SwvJhYQ8bwD-14" value="" style="endArrow=open;dashed=1;html=1;dashPattern=1 3;strokeWidth=2;rounded=0;entryX=0.566;entryY=0.1;entryDx=0;entryDy=0;targetPerimeterSpacing=5;endFill=0;entryPerimeter=0;" edge="1" parent="1" target="VF-4ps832SwvJhYQ8bwD-10">
          <mxGeometry width="50" height="50" relative="1" as="geometry">
            <mxPoint x="274" y="1304" as="sourcePoint" />
            <mxPoint x="201" y="1438" as="targetPoint" />
            <Array as="points" />
          </mxGeometry>
        </mxCell>
        <mxCell id="VF-4ps832SwvJhYQ8bwD-15" value="&quot;extend&quot;" style="text;html=1;align=center;verticalAlign=middle;resizable=0;points=[];autosize=1;strokeColor=none;fillColor=none;" vertex="1" parent="1">
          <mxGeometry x="370" y="1327" width="70" height="30" as="geometry" />
        </mxCell>
        <mxCell id="VF-4ps832SwvJhYQ8bwD-16" value="" style="endArrow=open;dashed=1;html=1;dashPattern=1 3;strokeWidth=2;rounded=0;entryX=0.5;entryY=0;entryDx=0;entryDy=0;exitX=0.457;exitY=0.988;exitDx=0;exitDy=0;targetPerimeterSpacing=5;endFill=0;exitPerimeter=0;" edge="1" parent="1" source="VF-4ps832SwvJhYQ8bwD-4" target="BpfTUyrRtMqFDufAwakE-95">
          <mxGeometry width="50" height="50" relative="1" as="geometry">
            <mxPoint x="793" y="1352" as="sourcePoint" />
            <mxPoint x="495" y="1507" as="targetPoint" />
            <Array as="points" />
          </mxGeometry>
        </mxCell>
        <mxCell id="VF-4ps832SwvJhYQ8bwD-17" value="&quot;include&quot;" style="text;html=1;align=center;verticalAlign=middle;resizable=0;points=[];autosize=1;strokeColor=none;fillColor=none;" vertex="1" parent="1">
          <mxGeometry x="869" y="1430" width="70" height="30" as="geometry" />
        </mxCell>
        <mxCell id="VF-4ps832SwvJhYQ8bwD-18" value="наложить штраф" style="ellipse;whiteSpace=wrap;html=1;" vertex="1" parent="1">
          <mxGeometry x="400" y="1637" width="180" height="50" as="geometry" />
        </mxCell>
        <mxCell id="VF-4ps832SwvJhYQ8bwD-20" value="" style="endArrow=open;dashed=1;html=1;dashPattern=1 3;strokeWidth=2;rounded=0;entryX=0;entryY=0.5;entryDx=0;entryDy=0;targetPerimeterSpacing=5;endFill=0;" edge="1" parent="1" target="VF-4ps832SwvJhYQ8bwD-18">
          <mxGeometry width="50" height="50" relative="1" as="geometry">
            <mxPoint x="278" y="1524.5" as="sourcePoint" />
            <mxPoint x="429" y="1609.5" as="targetPoint" />
            <Array as="points" />
          </mxGeometry>
        </mxCell>
        <mxCell id="VF-4ps832SwvJhYQ8bwD-21" value="&quot;extend&quot;" style="text;html=1;align=center;verticalAlign=middle;resizable=0;points=[];autosize=1;strokeColor=none;fillColor=none;" vertex="1" parent="1">
          <mxGeometry x="355" y="1592" width="70" height="30" as="geometry" />
        </mxCell>
        <mxCell id="VF-4ps832SwvJhYQ8bwD-22" value="проверка на махинации" style="ellipse;whiteSpace=wrap;html=1;" vertex="1" parent="1">
          <mxGeometry x="764" y="1213" width="170" height="30" as="geometry" />
        </mxCell>
        <mxCell id="VF-4ps832SwvJhYQ8bwD-23" value="" style="endArrow=open;dashed=1;html=1;dashPattern=1 3;strokeWidth=2;rounded=0;targetPerimeterSpacing=5;endFill=0;exitX=0.5;exitY=0;exitDx=0;exitDy=0;" edge="1" parent="1" source="VF-4ps832SwvJhYQ8bwD-4">
          <mxGeometry width="50" height="50" relative="1" as="geometry">
            <mxPoint x="829" y="1154" as="sourcePoint" />
            <mxPoint x="851" y="1244" as="targetPoint" />
            <Array as="points" />
          </mxGeometry>
        </mxCell>
        <mxCell id="VF-4ps832SwvJhYQ8bwD-24" value="&quot;include&quot;" style="text;html=1;align=center;verticalAlign=middle;resizable=0;points=[];autosize=1;strokeColor=none;fillColor=none;" vertex="1" parent="1">
          <mxGeometry x="858" y="1263" width="70" height="30" as="geometry" />
        </mxCell>
      </root>
    </mxGraphModel>
  </diagram>
</mxfile>
